%TF.GenerationSoftware,KiCad,Pcbnew,7.0.2-6a45011f42~172~ubuntu22.04.1*%
%TF.CreationDate,2023-05-10T23:38:50+02:00*%
%TF.ProjectId,keyboard,6b657962-6f61-4726-942e-6b696361645f,v1.0.0*%
%TF.SameCoordinates,Original*%
%TF.FileFunction,Paste,Bot*%
%TF.FilePolarity,Positive*%
%FSLAX46Y46*%
G04 Gerber Fmt 4.6, Leading zero omitted, Abs format (unit mm)*
G04 Created by KiCad (PCBNEW 7.0.2-6a45011f42~172~ubuntu22.04.1) date 2023-05-10 23:38:50*
%MOMM*%
%LPD*%
G01*
G04 APERTURE LIST*
G04 Aperture macros list*
%AMRotRect*
0 Rectangle, with rotation*
0 The origin of the aperture is its center*
0 $1 length*
0 $2 width*
0 $3 Rotation angle, in degrees counterclockwise*
0 Add horizontal line*
21,1,$1,$2,0,0,$3*%
G04 Aperture macros list end*
%ADD10R,0.900000X1.200000*%
%ADD11RotRect,0.900000X1.200000X337.000000*%
%ADD12RotRect,0.900000X1.200000X314.000000*%
%ADD13RotRect,0.900000X1.200000X325.500000*%
%ADD14R,1.000000X0.800000*%
%ADD15R,0.700000X1.500000*%
%ADD16R,0.900000X1.700000*%
%ADD17RotRect,0.900000X1.200000X348.500000*%
G04 APERTURE END LIST*
D10*
%TO.C,D1*%
X98350000Y-105000000D03*
X101650000Y-105000000D03*
%TD*%
%TO.C,D7*%
X136350000Y-95000000D03*
X139650000Y-95000000D03*
%TD*%
%TO.C,D14*%
X174350000Y-79000000D03*
X177650000Y-79000000D03*
%TD*%
D11*
%TO.C,D21*%
X190600624Y-122907333D03*
X193638290Y-124196745D03*
%TD*%
D12*
%TO.C,D24*%
X222191095Y-143820544D03*
X224483467Y-146194366D03*
%TD*%
D10*
%TO.C,D9*%
X136350000Y-59000000D03*
X139650000Y-59000000D03*
%TD*%
%TO.C,D3*%
X98350000Y-69000000D03*
X101650000Y-69000000D03*
%TD*%
D13*
%TO.C,D23*%
X217644097Y-116939171D03*
X220363713Y-118808311D03*
%TD*%
D10*
%TO.C,D13*%
X174350000Y-97000000D03*
X177650000Y-97000000D03*
%TD*%
%TO.C,D19*%
X153350000Y-116000000D03*
X156650000Y-116000000D03*
%TD*%
D14*
%TO.C,*%
X229870000Y-77050000D03*
X232080000Y-77050000D03*
X229870000Y-69750000D03*
X232080000Y-69750000D03*
D15*
X229220000Y-71150000D03*
X229220000Y-74150000D03*
X229220000Y-75650000D03*
%TD*%
D16*
%TO.C,*%
X230650000Y-64100000D03*
X230650000Y-60700000D03*
%TD*%
D17*
%TO.C,D20*%
X172323078Y-117578196D03*
X175556830Y-118236110D03*
%TD*%
D10*
%TO.C,D10*%
X155350000Y-92000000D03*
X158650000Y-92000000D03*
%TD*%
%TO.C,D17*%
X193350000Y-81000000D03*
X196650000Y-81000000D03*
%TD*%
%TO.C,D2*%
X98350000Y-87000000D03*
X101650000Y-87000000D03*
%TD*%
%TO.C,D8*%
X136350000Y-77000000D03*
X139650000Y-77000000D03*
%TD*%
%TO.C,D5*%
X117350000Y-87000000D03*
X120650000Y-87000000D03*
%TD*%
%TO.C,D11*%
X155350000Y-74000000D03*
X158650000Y-74000000D03*
%TD*%
%TO.C,D16*%
X193350000Y-99000000D03*
X196650000Y-99000000D03*
%TD*%
D12*
%TO.C,D25*%
X235139211Y-131316693D03*
X237431583Y-133690515D03*
%TD*%
D10*
%TO.C,D12*%
X155350000Y-56000000D03*
X158650000Y-56000000D03*
%TD*%
%TO.C,D18*%
X193350000Y-63000000D03*
X196650000Y-63000000D03*
%TD*%
%TO.C,D6*%
X117350000Y-69000000D03*
X120650000Y-69000000D03*
%TD*%
D13*
%TO.C,D22*%
X207448785Y-131773442D03*
X210168401Y-133642582D03*
%TD*%
D10*
%TO.C,D4*%
X117350000Y-105000000D03*
X120650000Y-105000000D03*
%TD*%
%TO.C,D15*%
X174350000Y-61000000D03*
X177650000Y-61000000D03*
%TD*%
M02*
