%TF.GenerationSoftware,KiCad,Pcbnew,7.0.2-6a45011f42~172~ubuntu22.04.1*%
%TF.CreationDate,2023-05-10T23:38:50+02:00*%
%TF.ProjectId,keyboard,6b657962-6f61-4726-942e-6b696361645f,v1.0.0*%
%TF.SameCoordinates,Original*%
%TF.FileFunction,Profile,NP*%
%FSLAX46Y46*%
G04 Gerber Fmt 4.6, Leading zero omitted, Abs format (unit mm)*
G04 Created by KiCad (PCBNEW 7.0.2-6a45011f42~172~ubuntu22.04.1) date 2023-05-10 23:38:50*
%MOMM*%
%LPD*%
G01*
G04 APERTURE LIST*
%TA.AperFunction,Profile*%
%ADD10C,0.150000*%
%TD*%
G04 APERTURE END LIST*
D10*
X225624204Y-156206146D02*
G75*
G03*
X228348182Y-156155366I1334696J1489446D01*
G01*
X89991013Y-52607628D02*
X126402513Y-43025655D01*
X210800000Y-54700000D02*
X233250000Y-54700000D01*
X145656922Y-40000004D02*
G75*
G03*
X145344997Y-40024475I-22J-1999996D01*
G01*
X235250014Y-104641961D02*
G75*
G03*
X235374212Y-105335803I1999986J-39D01*
G01*
X208800047Y-48682552D02*
G75*
G03*
X207142270Y-46712057I-2000047J-48D01*
G01*
X235250000Y-56700000D02*
G75*
G03*
X233250000Y-54700000I-2000000J0D01*
G01*
X143496764Y-121999353D02*
X90107768Y-111321554D01*
X88500000Y-109360392D02*
X88500000Y-54541777D01*
X225624173Y-156206180D02*
X200765041Y-133930636D01*
X254328160Y-131066779D02*
G75*
G03*
X254361536Y-128222417I-1389260J1438679D01*
G01*
X145656922Y-40000000D02*
X168327594Y-40000000D01*
X168669863Y-40029505D02*
X207142270Y-46712057D01*
X89991019Y-52607650D02*
G75*
G03*
X88500000Y-54541777I508981J-1934150D01*
G01*
X237394104Y-110796582D02*
G75*
G03*
X237847219Y-111508425I1875796J693882D01*
G01*
X88500009Y-109360392D02*
G75*
G03*
X90107768Y-111321552I1999991J-8D01*
G01*
X200765052Y-133930624D02*
G75*
G03*
X199829084Y-133460282I-1334652J-1489476D01*
G01*
X168669863Y-40029504D02*
G75*
G03*
X168327593Y-40000000I-342263J-1970496D01*
G01*
X235374211Y-105335803D02*
X237394117Y-110796577D01*
X126599574Y-42984278D02*
X145344997Y-40024474D01*
X143503267Y-122000665D02*
G75*
G03*
X143496763Y-121999353I-349967J-1718035D01*
G01*
X235250000Y-56700000D02*
X235250000Y-104641961D01*
X228348182Y-156155365D02*
X254328167Y-131066786D01*
X126599574Y-42984278D02*
G75*
G03*
X126402513Y-43025655I311926J-1975522D01*
G01*
X199829084Y-133460282D02*
X143503267Y-122000665D01*
X208800000Y-52700000D02*
G75*
G03*
X210800000Y-54700000I2000000J0D01*
G01*
X208800000Y-48682552D02*
X208800000Y-52700000D01*
X237847219Y-111508425D02*
X254361536Y-128222416D01*
M02*
