%TF.GenerationSoftware,KiCad,Pcbnew,7.0.2-6a45011f42~172~ubuntu22.04.1*%
%TF.CreationDate,2023-05-10T23:38:50+02:00*%
%TF.ProjectId,keyboard,6b657962-6f61-4726-942e-6b696361645f,v1.0.0*%
%TF.SameCoordinates,Original*%
%TF.FileFunction,Copper,L2,Bot*%
%TF.FilePolarity,Positive*%
%FSLAX46Y46*%
G04 Gerber Fmt 4.6, Leading zero omitted, Abs format (unit mm)*
G04 Created by KiCad (PCBNEW 7.0.2-6a45011f42~172~ubuntu22.04.1) date 2023-05-10 23:38:50*
%MOMM*%
%LPD*%
G01*
G04 APERTURE LIST*
G04 Aperture macros list*
%AMRotRect*
0 Rectangle, with rotation*
0 The origin of the aperture is its center*
0 $1 length*
0 $2 width*
0 $3 Rotation angle, in degrees counterclockwise*
0 Add horizontal line*
21,1,$1,$2,0,0,$3*%
%AMFreePoly0*
4,1,5,0.125000,-0.500000,-0.125000,-0.500000,-0.125000,0.500000,0.125000,0.500000,0.125000,-0.500000,0.125000,-0.500000,$1*%
%AMFreePoly1*
4,1,6,0.600000,0.200000,0.000000,-0.400000,-0.600000,0.200000,-0.600000,0.400000,0.600000,0.400000,0.600000,0.200000,0.600000,0.200000,$1*%
%AMFreePoly2*
4,1,49,0.004652,0.123753,0.008918,0.124682,0.028635,0.117327,0.062500,0.108253,0.068172,0.102580,0.074910,0.100068,0.087486,0.083266,0.108253,0.062500,0.111163,0.051639,0.117119,0.043683,0.118510,0.024217,0.125000,0.000000,0.121245,-0.014013,0.122144,-0.026571,0.113772,-0.041901,0.108253,-0.062500,0.095633,-0.075119,0.088389,-0.088388,-0.641000,-0.817776,-0.641000,-4.770223,
0.088389,-5.499612,0.109711,-5.528094,0.124682,-5.596918,0.100068,-5.662910,0.043683,-5.705119,-0.026571,-5.710144,-0.088388,-5.676389,-0.854388,-4.910388,-0.867764,-4.892519,-0.871157,-4.889580,-0.871926,-4.886960,-0.875710,-4.881906,-0.882285,-4.851677,-0.891000,-4.822000,-0.891000,-0.766000,-0.887823,-0.743906,-0.888144,-0.739429,-0.886835,-0.737032,-0.885937,-0.730783,-0.869209,-0.704755,
-0.854388,-0.677612,-0.088388,0.088389,-0.064427,0.106325,-0.062500,0.108253,-0.061491,0.108523,-0.059906,0.109711,-0.044779,0.113001,0.000000,0.125000,0.004652,0.123753,0.004652,0.123753,$1*%
%AMFreePoly3*
4,1,6,0.600000,-0.250000,-0.600000,-0.250000,-0.600000,1.000000,0.000000,0.400000,0.600000,1.000000,0.600000,-0.250000,0.600000,-0.250000,$1*%
G04 Aperture macros list end*
%TA.AperFunction,ComponentPad*%
%ADD10C,1.000000*%
%TD*%
%TA.AperFunction,ComponentPad*%
%ADD11C,2.032000*%
%TD*%
%TA.AperFunction,ComponentPad*%
%ADD12R,1.778000X1.778000*%
%TD*%
%TA.AperFunction,SMDPad,CuDef*%
%ADD13R,0.900000X1.200000*%
%TD*%
%TA.AperFunction,ComponentPad*%
%ADD14C,1.905000*%
%TD*%
%TA.AperFunction,ComponentPad*%
%ADD15RotRect,1.778000X1.778000X337.000000*%
%TD*%
%TA.AperFunction,SMDPad,CuDef*%
%ADD16RotRect,0.900000X1.200000X337.000000*%
%TD*%
%TA.AperFunction,ComponentPad*%
%ADD17RotRect,1.778000X1.778000X314.000000*%
%TD*%
%TA.AperFunction,SMDPad,CuDef*%
%ADD18RotRect,0.900000X1.200000X314.000000*%
%TD*%
%TA.AperFunction,ComponentPad*%
%ADD19RotRect,1.778000X1.778000X325.500000*%
%TD*%
%TA.AperFunction,SMDPad,CuDef*%
%ADD20RotRect,0.900000X1.200000X325.500000*%
%TD*%
%TA.AperFunction,SMDPad,CuDef*%
%ADD21R,1.000000X0.800000*%
%TD*%
%TA.AperFunction,SMDPad,CuDef*%
%ADD22R,0.700000X1.500000*%
%TD*%
%TA.AperFunction,SMDPad,CuDef*%
%ADD23R,0.900000X1.700000*%
%TD*%
%TA.AperFunction,ComponentPad*%
%ADD24RotRect,1.778000X1.778000X348.500000*%
%TD*%
%TA.AperFunction,SMDPad,CuDef*%
%ADD25RotRect,0.900000X1.200000X348.500000*%
%TD*%
%TA.AperFunction,ComponentPad*%
%ADD26C,1.600000*%
%TD*%
%TA.AperFunction,ComponentPad*%
%ADD27R,1.600000X1.600000*%
%TD*%
%TA.AperFunction,SMDPad,CuDef*%
%ADD28FreePoly0,270.000000*%
%TD*%
%TA.AperFunction,SMDPad,CuDef*%
%ADD29FreePoly1,270.000000*%
%TD*%
%TA.AperFunction,SMDPad,CuDef*%
%ADD30FreePoly1,90.000000*%
%TD*%
%TA.AperFunction,SMDPad,CuDef*%
%ADD31FreePoly0,90.000000*%
%TD*%
%TA.AperFunction,SMDPad,CuDef*%
%ADD32FreePoly2,270.000000*%
%TD*%
%TA.AperFunction,ComponentPad*%
%ADD33C,0.800000*%
%TD*%
%TA.AperFunction,SMDPad,CuDef*%
%ADD34FreePoly3,90.000000*%
%TD*%
%TA.AperFunction,SMDPad,CuDef*%
%ADD35FreePoly3,270.000000*%
%TD*%
%TA.AperFunction,SMDPad,CuDef*%
%ADD36FreePoly2,90.000000*%
%TD*%
%TA.AperFunction,Conductor*%
%ADD37C,0.250000*%
%TD*%
G04 APERTURE END LIST*
D10*
%TO.P,,2*%
%TO.N,GND*%
X231400000Y-83000000D03*
%TO.P,,1*%
%TO.N,pos*%
X229900000Y-83000000D03*
%TD*%
D11*
%TO.P,S4,1*%
%TO.N,P20*%
X114000000Y-96200000D03*
X124000000Y-96200000D03*
%TO.P,S4,2*%
%TO.N,pinky_bottom*%
X119000000Y-94100000D03*
X119000000Y-94100000D03*
%TD*%
%TO.P,S21,1*%
%TO.N,P14*%
X190955367Y-113497941D03*
X200160416Y-117405252D03*
%TO.P,S21,2*%
%TO.N,middle_lower*%
X196378427Y-113518536D03*
X196378427Y-113518536D03*
%TD*%
%TO.P,S9,1*%
%TO.N,P19*%
X133000000Y-50200000D03*
X143000000Y-50200000D03*
%TO.P,S9,2*%
%TO.N,ring_top*%
X138000000Y-48100000D03*
X138000000Y-48100000D03*
%TD*%
D12*
%TO.P,D1,1*%
%TO.N,P2*%
X96190000Y-105000000D03*
D13*
X98350000Y-105000000D03*
%TO.P,D1,2*%
%TO.N,outer_bottom*%
X101650000Y-105000000D03*
D14*
X103810000Y-105000000D03*
%TD*%
D11*
%TO.P,S7,1*%
%TO.N,P19*%
X133000000Y-86200000D03*
X143000000Y-86200000D03*
%TO.P,S7,2*%
%TO.N,ring_bottom*%
X138000000Y-84100000D03*
X138000000Y-84100000D03*
%TD*%
D12*
%TO.P,D7,1*%
%TO.N,P2*%
X134190000Y-95000000D03*
D13*
X136350000Y-95000000D03*
%TO.P,D7,2*%
%TO.N,ring_bottom*%
X139650000Y-95000000D03*
D14*
X141810000Y-95000000D03*
%TD*%
D12*
%TO.P,D14,1*%
%TO.N,P0*%
X172190000Y-79000000D03*
D13*
X174350000Y-79000000D03*
%TO.P,D14,2*%
%TO.N,index_home*%
X177650000Y-79000000D03*
D14*
X179810000Y-79000000D03*
%TD*%
D15*
%TO.P,D21,1*%
%TO.N,P6*%
X188612334Y-122063353D03*
D16*
X190600624Y-122907333D03*
%TO.P,D21,2*%
%TO.N,middle_lower*%
X193638290Y-124196745D03*
D14*
X195626580Y-125040725D03*
%TD*%
D11*
%TO.P,S17,1*%
%TO.N,P14*%
X190000000Y-72200000D03*
X200000000Y-72200000D03*
%TO.P,S17,2*%
%TO.N,inner_home*%
X195000000Y-70100000D03*
X195000000Y-70100000D03*
%TD*%
%TO.P,S11,1*%
%TO.N,P18*%
X152000000Y-65200000D03*
X162000000Y-65200000D03*
%TO.P,S11,2*%
%TO.N,middle_home*%
X157000000Y-63100000D03*
X157000000Y-63100000D03*
%TD*%
D17*
%TO.P,D24,1*%
%TO.N,P6*%
X220690633Y-142266770D03*
D18*
X222191095Y-143820544D03*
%TO.P,D24,2*%
%TO.N,outer2_lower*%
X224483467Y-146194366D03*
D14*
X225983929Y-147748140D03*
%TD*%
D12*
%TO.P,D9,1*%
%TO.N,P1*%
X134190000Y-59000000D03*
D13*
X136350000Y-59000000D03*
%TO.P,D9,2*%
%TO.N,ring_top*%
X139650000Y-59000000D03*
D14*
X141810000Y-59000000D03*
%TD*%
D12*
%TO.P,D3,1*%
%TO.N,P1*%
X96190000Y-69000000D03*
D13*
X98350000Y-69000000D03*
%TO.P,D3,2*%
%TO.N,outer_top*%
X101650000Y-69000000D03*
D14*
X103810000Y-69000000D03*
%TD*%
D11*
%TO.P,S6,1*%
%TO.N,P20*%
X114000000Y-60200000D03*
X124000000Y-60200000D03*
%TO.P,S6,2*%
%TO.N,pinky_top*%
X119000000Y-58100000D03*
X119000000Y-58100000D03*
%TD*%
D19*
%TO.P,D23,1*%
%TO.N,P7*%
X215863984Y-115715733D03*
D20*
X217644097Y-116939171D03*
%TO.P,D23,2*%
%TO.N,outer1_upper*%
X220363713Y-118808311D03*
D14*
X222143826Y-120031749D03*
%TD*%
D11*
%TO.P,S14,1*%
%TO.N,P15*%
X171000000Y-70200000D03*
X181000000Y-70200000D03*
%TO.P,S14,2*%
%TO.N,index_home*%
X176000000Y-68100000D03*
X176000000Y-68100000D03*
%TD*%
D12*
%TO.P,D13,1*%
%TO.N,P2*%
X172190000Y-97000000D03*
D13*
X174350000Y-97000000D03*
%TO.P,D13,2*%
%TO.N,index_bottom*%
X177650000Y-97000000D03*
D14*
X179810000Y-97000000D03*
%TD*%
D11*
%TO.P,S18,1*%
%TO.N,P14*%
X190000000Y-54200000D03*
X200000000Y-54200000D03*
%TO.P,S18,2*%
%TO.N,inner_top*%
X195000000Y-52100000D03*
X195000000Y-52100000D03*
%TD*%
%TO.P,S16,1*%
%TO.N,P14*%
X190000000Y-90200000D03*
X200000000Y-90200000D03*
%TO.P,S16,2*%
%TO.N,inner_bottom*%
X195000000Y-88100000D03*
X195000000Y-88100000D03*
%TD*%
%TO.P,S2,1*%
%TO.N,P21*%
X95000000Y-78200000D03*
X105000000Y-78200000D03*
%TO.P,S2,2*%
%TO.N,outer_home*%
X100000000Y-76100000D03*
X100000000Y-76100000D03*
%TD*%
%TO.P,S23,1*%
%TO.N,P8*%
X219867649Y-107789399D03*
X228108911Y-113453462D03*
%TO.P,S23,2*%
%TO.N,outer1_upper*%
X225177733Y-108890765D03*
X225177733Y-108890765D03*
%TD*%
D12*
%TO.P,D19,1*%
%TO.N,P6*%
X151190000Y-116000000D03*
D13*
X153350000Y-116000000D03*
%TO.P,D19,2*%
%TO.N,inner1_lower*%
X156650000Y-116000000D03*
D14*
X158810000Y-116000000D03*
%TD*%
D11*
%TO.P,S12,1*%
%TO.N,P18*%
X152000000Y-47200000D03*
X162000000Y-47200000D03*
%TO.P,S12,2*%
%TO.N,middle_top*%
X157000000Y-45100000D03*
X157000000Y-45100000D03*
%TD*%
%TO.P,S1,1*%
%TO.N,P21*%
X95000000Y-96200000D03*
X105000000Y-96200000D03*
%TO.P,S1,2*%
%TO.N,outer_bottom*%
X100000000Y-94100000D03*
X100000000Y-94100000D03*
%TD*%
D21*
%TO.P,,*%
%TO.N,*%
X229870000Y-77050000D03*
X232080000Y-77050000D03*
X229870000Y-69750000D03*
X232080000Y-69750000D03*
D22*
%TO.P,,1*%
%TO.N,pos*%
X229220000Y-71150000D03*
%TO.P,,2*%
%TO.N,RAW*%
X229220000Y-74150000D03*
%TO.P,,3*%
%TO.N,N/C*%
X229220000Y-75650000D03*
%TD*%
D11*
%TO.P,S13,1*%
%TO.N,P15*%
X171000000Y-88200000D03*
X181000000Y-88200000D03*
%TO.P,S13,2*%
%TO.N,index_bottom*%
X176000000Y-86100000D03*
X176000000Y-86100000D03*
%TD*%
%TO.P,S15,1*%
%TO.N,P15*%
X171000000Y-52200000D03*
X181000000Y-52200000D03*
%TO.P,S15,2*%
%TO.N,index_top*%
X176000000Y-50100000D03*
X176000000Y-50100000D03*
%TD*%
%TO.P,S20,1*%
%TO.N,P15*%
X170794768Y-108286976D03*
X180594015Y-110280656D03*
%TO.P,S20,2*%
%TO.N,inner2_lower*%
X176113064Y-107225974D03*
X176113064Y-107225974D03*
%TD*%
D23*
%TO.P,,1*%
%TO.N,RST*%
X230650000Y-64100000D03*
%TO.P,,2*%
%TO.N,GND*%
X230650000Y-60700000D03*
%TD*%
D24*
%TO.P,D20,1*%
%TO.N,P6*%
X170206441Y-117147561D03*
D25*
X172323078Y-117578196D03*
%TO.P,D20,2*%
%TO.N,inner2_lower*%
X175556830Y-118236110D03*
D14*
X177673467Y-118666745D03*
%TD*%
D12*
%TO.P,D10,1*%
%TO.N,P2*%
X153190000Y-92000000D03*
D13*
X155350000Y-92000000D03*
%TO.P,D10,2*%
%TO.N,middle_bottom*%
X158650000Y-92000000D03*
D14*
X160810000Y-92000000D03*
%TD*%
D11*
%TO.P,S8,1*%
%TO.N,P19*%
X133000000Y-68200000D03*
X143000000Y-68200000D03*
%TO.P,S8,2*%
%TO.N,ring_home*%
X138000000Y-66100000D03*
X138000000Y-66100000D03*
%TD*%
D12*
%TO.P,D17,1*%
%TO.N,P0*%
X191190000Y-81000000D03*
D13*
X193350000Y-81000000D03*
%TO.P,D17,2*%
%TO.N,inner_home*%
X196650000Y-81000000D03*
D14*
X198810000Y-81000000D03*
%TD*%
D11*
%TO.P,S25,1*%
%TO.N,P9*%
X239142295Y-122793911D03*
X246088879Y-129987309D03*
%TO.P,S25,2*%
%TO.N,outer2_upper*%
X244126201Y-124931828D03*
X244126201Y-124931828D03*
%TD*%
D12*
%TO.P,D2,1*%
%TO.N,P0*%
X96190000Y-87000000D03*
D13*
X98350000Y-87000000D03*
%TO.P,D2,2*%
%TO.N,outer_home*%
X101650000Y-87000000D03*
D14*
X103810000Y-87000000D03*
%TD*%
D12*
%TO.P,D8,1*%
%TO.N,P0*%
X134190000Y-77000000D03*
D13*
X136350000Y-77000000D03*
%TO.P,D8,2*%
%TO.N,ring_home*%
X139650000Y-77000000D03*
D14*
X141810000Y-77000000D03*
%TD*%
D12*
%TO.P,D5,1*%
%TO.N,P0*%
X115190000Y-87000000D03*
D13*
X117350000Y-87000000D03*
%TO.P,D5,2*%
%TO.N,pinky_home*%
X120650000Y-87000000D03*
D14*
X122810000Y-87000000D03*
%TD*%
D11*
%TO.P,S10,1*%
%TO.N,P18*%
X152000000Y-83200000D03*
X162000000Y-83200000D03*
%TO.P,S10,2*%
%TO.N,middle_bottom*%
X157000000Y-81100000D03*
X157000000Y-81100000D03*
%TD*%
D12*
%TO.P,D11,1*%
%TO.N,P0*%
X153190000Y-74000000D03*
D13*
X155350000Y-74000000D03*
%TO.P,D11,2*%
%TO.N,middle_home*%
X158650000Y-74000000D03*
D14*
X160810000Y-74000000D03*
%TD*%
D12*
%TO.P,D16,1*%
%TO.N,P2*%
X191190000Y-99000000D03*
D13*
X193350000Y-99000000D03*
%TO.P,D16,2*%
%TO.N,inner_bottom*%
X196650000Y-99000000D03*
D14*
X198810000Y-99000000D03*
%TD*%
D11*
%TO.P,S24,1*%
%TO.N,P9*%
X226194179Y-135297762D03*
X233140763Y-142491160D03*
%TO.P,S24,2*%
%TO.N,outer2_lower*%
X231178085Y-137435679D03*
X231178085Y-137435679D03*
%TD*%
%TO.P,S5,1*%
%TO.N,P20*%
X114000000Y-78200000D03*
X124000000Y-78200000D03*
%TO.P,S5,2*%
%TO.N,pinky_home*%
X119000000Y-76100000D03*
X119000000Y-76100000D03*
%TD*%
%TO.P,S22,1*%
%TO.N,P8*%
X209672337Y-122623670D03*
X217913599Y-128287733D03*
%TO.P,S22,2*%
%TO.N,outer1_lower*%
X214982421Y-123725036D03*
X214982421Y-123725036D03*
%TD*%
D17*
%TO.P,D25,1*%
%TO.N,P7*%
X233638749Y-129762919D03*
D18*
X235139211Y-131316693D03*
%TO.P,D25,2*%
%TO.N,outer2_upper*%
X237431583Y-133690515D03*
D14*
X238932045Y-135244289D03*
%TD*%
D11*
%TO.P,S19,1*%
%TO.N,P18*%
X150000000Y-107200000D03*
X160000000Y-107200000D03*
%TO.P,S19,2*%
%TO.N,inner1_lower*%
X155000000Y-105100000D03*
X155000000Y-105100000D03*
%TD*%
D12*
%TO.P,D12,1*%
%TO.N,P1*%
X153190000Y-56000000D03*
D13*
X155350000Y-56000000D03*
%TO.P,D12,2*%
%TO.N,middle_top*%
X158650000Y-56000000D03*
D14*
X160810000Y-56000000D03*
%TD*%
D12*
%TO.P,D18,1*%
%TO.N,P1*%
X191190000Y-63000000D03*
D13*
X193350000Y-63000000D03*
%TO.P,D18,2*%
%TO.N,inner_top*%
X196650000Y-63000000D03*
D14*
X198810000Y-63000000D03*
%TD*%
D12*
%TO.P,D6,1*%
%TO.N,P1*%
X115190000Y-69000000D03*
D13*
X117350000Y-69000000D03*
%TO.P,D6,2*%
%TO.N,pinky_top*%
X120650000Y-69000000D03*
D14*
X122810000Y-69000000D03*
%TD*%
D19*
%TO.P,D22,1*%
%TO.N,P6*%
X205668672Y-130550004D03*
D20*
X207448785Y-131773442D03*
%TO.P,D22,2*%
%TO.N,outer1_lower*%
X210168401Y-133642582D03*
D14*
X211948514Y-134866020D03*
%TD*%
D12*
%TO.P,D4,1*%
%TO.N,P2*%
X115190000Y-105000000D03*
D13*
X117350000Y-105000000D03*
%TO.P,D4,2*%
%TO.N,pinky_bottom*%
X120650000Y-105000000D03*
D14*
X122810000Y-105000000D03*
%TD*%
D26*
%TO.P,MCU1,*%
%TO.N,*%
X225620000Y-59430000D03*
D27*
X225620000Y-59430000D03*
D28*
X224350000Y-59430000D03*
D29*
X223842000Y-59430000D03*
D30*
X212158000Y-59430000D03*
D31*
X211650000Y-59430000D03*
D26*
X210380000Y-59430000D03*
X225620000Y-61970000D03*
D28*
X224350000Y-61970000D03*
D29*
X223842000Y-61970000D03*
D30*
X212158000Y-61970000D03*
D31*
X211650000Y-61970000D03*
D26*
X210380000Y-61970000D03*
X225620000Y-64510000D03*
D28*
X224350000Y-64510000D03*
D29*
X223842000Y-64510000D03*
D30*
X212158000Y-64510000D03*
D31*
X211650000Y-64510000D03*
D26*
X210380000Y-64510000D03*
X225620000Y-67050000D03*
D28*
X224350000Y-67050000D03*
D29*
X223842000Y-67050000D03*
D30*
X212158000Y-67050000D03*
D31*
X211650000Y-67050000D03*
D26*
X210380000Y-67050000D03*
X225620000Y-69590000D03*
D28*
X224350000Y-69590000D03*
D29*
X223842000Y-69590000D03*
D30*
X212158000Y-69590000D03*
D31*
X211650000Y-69590000D03*
D26*
X210380000Y-69590000D03*
X225620000Y-72130000D03*
D28*
X224350000Y-72130000D03*
D29*
X223842000Y-72130000D03*
D30*
X212158000Y-72130000D03*
D31*
X211650000Y-72130000D03*
D26*
X210380000Y-72130000D03*
X225620000Y-74670000D03*
D28*
X224350000Y-74670000D03*
D29*
X223842000Y-74670000D03*
D30*
X212158000Y-74670000D03*
D31*
X211650000Y-74670000D03*
D26*
X210380000Y-74670000D03*
X225620000Y-77210000D03*
D28*
X224350000Y-77210000D03*
D29*
X223842000Y-77210000D03*
D30*
X212158000Y-77210000D03*
D31*
X211650000Y-77210000D03*
D26*
X210380000Y-77210000D03*
X225620000Y-79750000D03*
D28*
X224350000Y-79750000D03*
D29*
X223842000Y-79750000D03*
D30*
X212158000Y-79750000D03*
D31*
X211650000Y-79750000D03*
D26*
X210380000Y-79750000D03*
X225620000Y-82290000D03*
D28*
X224350000Y-82290000D03*
D29*
X223842000Y-82290000D03*
D30*
X212158000Y-82290000D03*
D31*
X211650000Y-82290000D03*
D26*
X210380000Y-82290000D03*
X225620000Y-84830000D03*
D28*
X224350000Y-84830000D03*
D29*
X223842000Y-84830000D03*
D30*
X212158000Y-84830000D03*
D31*
X211650000Y-84830000D03*
D26*
X210380000Y-84830000D03*
X225620000Y-87370000D03*
D28*
X224350000Y-87370000D03*
D29*
X223842000Y-87370000D03*
D30*
X212158000Y-87370000D03*
D31*
X211650000Y-87370000D03*
D26*
X210380000Y-87370000D03*
D32*
%TO.P,MCU1,1*%
%TO.N,RAW*%
X218762000Y-59430000D03*
D33*
X218762000Y-59430000D03*
D34*
X213174000Y-59430000D03*
D32*
%TO.P,MCU1,2*%
%TO.N,GND*%
X218762000Y-61970000D03*
D33*
X218762000Y-61970000D03*
D34*
X213174000Y-61970000D03*
D32*
%TO.P,MCU1,3*%
%TO.N,RST*%
X218762000Y-64510000D03*
D33*
X218762000Y-64510000D03*
D34*
X213174000Y-64510000D03*
D32*
%TO.P,MCU1,4*%
%TO.N,VCC*%
X218762000Y-67050000D03*
D33*
X218762000Y-67050000D03*
D34*
X213174000Y-67050000D03*
D32*
%TO.P,MCU1,5*%
%TO.N,P21*%
X218762000Y-69590000D03*
D33*
X218762000Y-69590000D03*
D34*
X213174000Y-69590000D03*
D32*
%TO.P,MCU1,6*%
%TO.N,P20*%
X218762000Y-72130000D03*
D33*
X218762000Y-72130000D03*
D34*
X213174000Y-72130000D03*
D32*
%TO.P,MCU1,7*%
%TO.N,P19*%
X218762000Y-74670000D03*
D33*
X218762000Y-74670000D03*
D34*
X213174000Y-74670000D03*
D32*
%TO.P,MCU1,8*%
%TO.N,P18*%
X218762000Y-77210000D03*
D33*
X218762000Y-77210000D03*
D34*
X213174000Y-77210000D03*
D32*
%TO.P,MCU1,9*%
%TO.N,P15*%
X218762000Y-79750000D03*
D33*
X218762000Y-79750000D03*
D34*
X213174000Y-79750000D03*
D32*
%TO.P,MCU1,10*%
%TO.N,P14*%
X218762000Y-82290000D03*
D33*
X218762000Y-82290000D03*
D34*
X213174000Y-82290000D03*
D32*
%TO.P,MCU1,11*%
%TO.N,P16*%
X218762000Y-84830000D03*
D33*
X218762000Y-84830000D03*
D34*
X213174000Y-84830000D03*
D32*
%TO.P,MCU1,12*%
%TO.N,P10*%
X218762000Y-87370000D03*
D33*
X218762000Y-87370000D03*
D34*
X213174000Y-87370000D03*
D35*
%TO.P,MCU1,13*%
%TO.N,P9*%
X222826000Y-87370000D03*
D36*
X217238000Y-87370000D03*
D33*
X217238000Y-87370000D03*
D35*
%TO.P,MCU1,14*%
%TO.N,P8*%
X222826000Y-84830000D03*
D36*
X217238000Y-84830000D03*
D33*
X217238000Y-84830000D03*
D35*
%TO.P,MCU1,15*%
%TO.N,P7*%
X222826000Y-82290000D03*
D36*
X217238000Y-82290000D03*
D33*
X217238000Y-82290000D03*
D35*
%TO.P,MCU1,16*%
%TO.N,P6*%
X222826000Y-79750000D03*
D36*
X217238000Y-79750000D03*
D33*
X217238000Y-79750000D03*
D35*
%TO.P,MCU1,17*%
%TO.N,P5*%
X222826000Y-77210000D03*
D36*
X217238000Y-77210000D03*
D33*
X217238000Y-77210000D03*
D35*
%TO.P,MCU1,18*%
%TO.N,P4*%
X222826000Y-74670000D03*
D36*
X217238000Y-74670000D03*
D33*
X217238000Y-74670000D03*
D35*
%TO.P,MCU1,19*%
%TO.N,P3*%
X222826000Y-72130000D03*
D36*
X217238000Y-72130000D03*
D33*
X217238000Y-72130000D03*
D35*
%TO.P,MCU1,20*%
%TO.N,P2*%
X222826000Y-69590000D03*
D36*
X217238000Y-69590000D03*
D33*
X217238000Y-69590000D03*
D35*
%TO.P,MCU1,21*%
%TO.N,GND*%
X222826000Y-67050000D03*
D36*
X217238000Y-67050000D03*
D33*
X217238000Y-67050000D03*
D35*
%TO.P,MCU1,22*%
X222826000Y-64510000D03*
D36*
X217238000Y-64510000D03*
D33*
X217238000Y-64510000D03*
D35*
%TO.P,MCU1,23*%
%TO.N,P0*%
X222826000Y-61970000D03*
D36*
X217238000Y-61970000D03*
D33*
X217238000Y-61970000D03*
D35*
%TO.P,MCU1,24*%
%TO.N,P1*%
X222826000Y-59430000D03*
D36*
X217238000Y-59430000D03*
D33*
X217238000Y-59430000D03*
%TD*%
D12*
%TO.P,D15,1*%
%TO.N,P1*%
X172190000Y-61000000D03*
D13*
X174350000Y-61000000D03*
%TO.P,D15,2*%
%TO.N,index_top*%
X177650000Y-61000000D03*
D14*
X179810000Y-61000000D03*
%TD*%
D11*
%TO.P,S3,1*%
%TO.N,P21*%
X95000000Y-60200000D03*
X105000000Y-60200000D03*
%TO.P,S3,2*%
%TO.N,outer_top*%
X100000000Y-58100000D03*
X100000000Y-58100000D03*
%TD*%
D37*
%TO.N,pos*%
X229220000Y-71150000D02*
X229220000Y-71740000D01*
X229220000Y-71740000D02*
X233680000Y-76200000D01*
X233680000Y-76200000D02*
X233680000Y-79220000D01*
X233680000Y-79220000D02*
X229900000Y-83000000D01*
%TO.N,P6*%
X190600624Y-122907333D02*
X189613291Y-121920000D01*
X189613291Y-121920000D02*
X188755687Y-121920000D01*
X188755687Y-121920000D02*
X188612334Y-122063353D01*
%TO.N,*%
X139700000Y-109220000D02*
X139700000Y-113030000D01*
X132080000Y-111760000D02*
X134620000Y-111760000D01*
X135890000Y-109220000D02*
X135890000Y-111760000D01*
X135890000Y-111760000D02*
X135890000Y-113030000D01*
X140970000Y-109220000D02*
X140970000Y-113030000D01*
X133350000Y-104140000D02*
X133350000Y-106680000D01*
X135890000Y-104140000D02*
X135890000Y-102870000D01*
X140970000Y-102870000D02*
X140970000Y-106680000D01*
X135890000Y-104140000D02*
X135890000Y-106680000D01*
X137160000Y-101600000D02*
X137160000Y-113030000D01*
X137160000Y-113030000D02*
X137160000Y-114300000D01*
X132080000Y-107950000D02*
X142240000Y-107950000D01*
%TO.N,P21*%
X217347000Y-68175000D02*
X218762000Y-69590000D01*
X205450000Y-67020000D02*
X206605000Y-68175000D01*
X106725900Y-61925900D02*
X106725900Y-76474100D01*
X106725900Y-79925900D02*
X106725900Y-94474100D01*
X106725900Y-94474100D02*
X105000000Y-96200000D01*
X95000000Y-96200000D02*
X105000000Y-96200000D01*
X106725900Y-76474100D02*
X105000000Y-78200000D01*
X95000000Y-60200000D02*
X105000000Y-60200000D01*
X166292792Y-46910000D02*
X197411980Y-46910000D01*
X161662792Y-42280000D02*
X166292792Y-46910000D01*
X123550000Y-56153604D02*
X137423604Y-42280000D01*
X105000000Y-60200000D02*
X106725900Y-61925900D01*
X95000000Y-78200000D02*
X105000000Y-78200000D01*
X197411980Y-46910000D02*
X205450000Y-54948020D01*
X206605000Y-68175000D02*
X217347000Y-68175000D01*
X109046396Y-56153604D02*
X123550000Y-56153604D01*
X105000000Y-78200000D02*
X106725900Y-79925900D01*
X205450000Y-54948020D02*
X205450000Y-67020000D01*
X105000000Y-60200000D02*
X109046396Y-56153604D01*
X137423604Y-42280000D02*
X161662792Y-42280000D01*
%TO.N,outer_bottom*%
X103810000Y-105000000D02*
X101650000Y-105000000D01*
%TO.N,outer_home*%
X103810000Y-87000000D02*
X101650000Y-87000000D01*
%TO.N,outer_top*%
X103810000Y-69000000D02*
X101650000Y-69000000D01*
%TO.N,P20*%
X125725900Y-61925900D02*
X125725900Y-76474100D01*
X124000000Y-96200000D02*
X114000000Y-96200000D01*
X125725900Y-76474100D02*
X124000000Y-78200000D01*
X197225584Y-47360000D02*
X166106396Y-47360000D01*
X137610000Y-42730000D02*
X124000000Y-56340000D01*
X124000000Y-56340000D02*
X124000000Y-60200000D01*
X166106396Y-47360000D02*
X161476396Y-42730000D01*
X125725900Y-94474100D02*
X124000000Y-96200000D01*
X124000000Y-78200000D02*
X125725900Y-79925900D01*
X125725900Y-79925900D02*
X125725900Y-94474100D01*
X114000000Y-60200000D02*
X124000000Y-60200000D01*
X217347000Y-70715000D02*
X206605000Y-70715000D01*
X124000000Y-78200000D02*
X114000000Y-78200000D01*
X206605000Y-70715000D02*
X205000000Y-69110000D01*
X218762000Y-72130000D02*
X217347000Y-70715000D01*
X205000000Y-55134416D02*
X197225584Y-47360000D01*
X161476396Y-42730000D02*
X137610000Y-42730000D01*
X205000000Y-69110000D02*
X205000000Y-55134416D01*
X124000000Y-60200000D02*
X125725900Y-61925900D01*
%TO.N,pinky_bottom*%
X120650000Y-105000000D02*
X122810000Y-105000000D01*
%TO.N,pinky_home*%
X120650000Y-87000000D02*
X122810000Y-87000000D01*
%TO.N,pinky_top*%
X122810000Y-69000000D02*
X120650000Y-69000000D01*
%TO.N,P19*%
X204550000Y-72470000D02*
X204550000Y-55320812D01*
X218762000Y-74670000D02*
X217637000Y-73545000D01*
X165920000Y-47810000D02*
X161290000Y-43180000D01*
X197039188Y-47810000D02*
X165920000Y-47810000D01*
X161290000Y-43180000D02*
X150020000Y-43180000D01*
X143000000Y-68200000D02*
X144725900Y-69925900D01*
X143000000Y-50200000D02*
X133000000Y-50200000D01*
X217637000Y-73545000D02*
X205625000Y-73545000D01*
X144725900Y-69925900D02*
X144725900Y-84474100D01*
X150020000Y-43180000D02*
X143000000Y-50200000D01*
X204550000Y-55320812D02*
X197039188Y-47810000D01*
X144725900Y-84474100D02*
X143000000Y-86200000D01*
X205625000Y-73545000D02*
X204550000Y-72470000D01*
X143000000Y-68200000D02*
X133000000Y-68200000D01*
X144725900Y-66474100D02*
X143000000Y-68200000D01*
X143000000Y-50200000D02*
X144725900Y-51925900D01*
X143000000Y-86200000D02*
X133000000Y-86200000D01*
X144725900Y-51925900D02*
X144725900Y-66474100D01*
%TO.N,ring_bottom*%
X139650000Y-95000000D02*
X141810000Y-95000000D01*
%TO.N,ring_home*%
X139650000Y-77000000D02*
X141810000Y-77000000D01*
%TO.N,ring_top*%
X139650000Y-59000000D02*
X141810000Y-59000000D01*
%TO.N,P18*%
X163725900Y-66925900D02*
X163725900Y-81474100D01*
X163060000Y-48260000D02*
X162000000Y-47200000D01*
X162000000Y-83200000D02*
X152000000Y-83200000D01*
X152000000Y-47200000D02*
X162000000Y-47200000D01*
X163725900Y-48925900D02*
X163725900Y-63474100D01*
X162000000Y-65200000D02*
X163725900Y-66925900D01*
X160000000Y-107200000D02*
X150000000Y-107200000D01*
X162000000Y-47200000D02*
X163725900Y-48925900D01*
X163725900Y-63474100D02*
X162000000Y-65200000D01*
X218762000Y-77210000D02*
X217637000Y-76085000D01*
X196852792Y-48260000D02*
X163060000Y-48260000D01*
X205627792Y-76085000D02*
X204100000Y-74557208D01*
X162000000Y-83200000D02*
X163725900Y-84925900D01*
X204100000Y-74557208D02*
X204100000Y-55507208D01*
X163725900Y-84925900D02*
X163725900Y-103474100D01*
X163725900Y-103474100D02*
X160000000Y-107200000D01*
X162000000Y-65200000D02*
X152000000Y-65200000D01*
X217637000Y-76085000D02*
X205627792Y-76085000D01*
X204100000Y-55507208D02*
X196852792Y-48260000D01*
X163725900Y-81474100D02*
X162000000Y-83200000D01*
%TO.N,middle_bottom*%
X158650000Y-92000000D02*
X160810000Y-92000000D01*
%TO.N,middle_home*%
X158650000Y-74000000D02*
X160810000Y-74000000D01*
%TO.N,middle_top*%
X158650000Y-56000000D02*
X160810000Y-56000000D01*
%TO.N,P15*%
X203650000Y-74743604D02*
X203650000Y-55693604D01*
X180594015Y-110280656D02*
X172788448Y-110280656D01*
X181000000Y-52200000D02*
X182725900Y-53925900D01*
X182725900Y-68474100D02*
X181000000Y-70200000D01*
X183670000Y-49530000D02*
X181000000Y-52200000D01*
X182725900Y-53925900D02*
X182725900Y-68474100D01*
X172788448Y-110280656D02*
X170794768Y-108286976D01*
X217347000Y-78335000D02*
X207241396Y-78335000D01*
X181000000Y-88200000D02*
X182725900Y-89925900D01*
X181000000Y-88200000D02*
X171000000Y-88200000D01*
X171000000Y-52200000D02*
X181000000Y-52200000D01*
X207241396Y-78335000D02*
X203650000Y-74743604D01*
X203650000Y-55693604D02*
X197486396Y-49530000D01*
X181000000Y-70200000D02*
X171000000Y-70200000D01*
X182725900Y-86474100D02*
X181000000Y-88200000D01*
X197486396Y-49530000D02*
X183670000Y-49530000D01*
X181000000Y-70200000D02*
X182725900Y-71925900D01*
X182725900Y-71925900D02*
X182725900Y-86474100D01*
X182725900Y-89925900D02*
X182725900Y-108148771D01*
X218762000Y-79750000D02*
X217347000Y-78335000D01*
X182725900Y-108148771D02*
X180594015Y-110280656D01*
%TO.N,index_bottom*%
X177650000Y-97000000D02*
X179810000Y-97000000D01*
%TO.N,index_home*%
X177650000Y-79000000D02*
X179810000Y-79000000D01*
%TO.N,index_top*%
X177650000Y-61000000D02*
X179810000Y-61000000D01*
%TO.N,P14*%
X201725900Y-70474100D02*
X200000000Y-72200000D01*
X200000000Y-72200000D02*
X190000000Y-72200000D01*
X197415252Y-117405252D02*
X193507941Y-113497941D01*
X201725900Y-55925900D02*
X201725900Y-70474100D01*
X201725900Y-73925900D02*
X201725900Y-88474100D01*
X200000000Y-90200000D02*
X190000000Y-90200000D01*
X190000000Y-54200000D02*
X200000000Y-54200000D01*
X200000000Y-72200000D02*
X201725900Y-73925900D01*
X203200000Y-74930000D02*
X203200000Y-55880000D01*
X200000000Y-90200000D02*
X201930000Y-92130000D01*
X201930000Y-115635668D02*
X200160416Y-117405252D01*
X200000000Y-54200000D02*
X201725900Y-55925900D01*
X203200000Y-55880000D02*
X201520000Y-54200000D01*
X218762000Y-82290000D02*
X217347000Y-80875000D01*
X201520000Y-54200000D02*
X200000000Y-54200000D01*
X201725900Y-88474100D02*
X200000000Y-90200000D01*
X200160416Y-117405252D02*
X197415252Y-117405252D01*
X209145000Y-80875000D02*
X203200000Y-74930000D01*
X193507941Y-113497941D02*
X190955367Y-113497941D01*
X201930000Y-92130000D02*
X201930000Y-115635668D01*
X217347000Y-80875000D02*
X209145000Y-80875000D01*
%TO.N,inner_bottom*%
X196650000Y-99000000D02*
X198810000Y-99000000D01*
%TO.N,inner_home*%
X196650000Y-81000000D02*
X198810000Y-81000000D01*
%TO.N,inner_top*%
X196650000Y-63000000D02*
X198810000Y-63000000D01*
%TO.N,inner1_lower*%
X156650000Y-116000000D02*
X158810000Y-116000000D01*
%TO.N,inner2_lower*%
X175556830Y-118236110D02*
X177242832Y-118236110D01*
X177242832Y-118236110D02*
X177673467Y-118666745D01*
%TO.N,middle_lower*%
X193638290Y-124196745D02*
X194782600Y-124196745D01*
X194782600Y-124196745D02*
X195626580Y-125040725D01*
%TO.N,P8*%
X215914000Y-86154000D02*
X217238000Y-84830000D01*
X228108911Y-113453462D02*
X228108911Y-118092421D01*
X210005009Y-86154000D02*
X215914000Y-86154000D01*
X219867649Y-107789399D02*
X219708524Y-107789399D01*
X209255000Y-97335875D02*
X209255000Y-86904009D01*
X225531712Y-113453462D02*
X219867649Y-107789399D01*
X215336400Y-128287733D02*
X209672337Y-122623670D01*
X228108911Y-113453462D02*
X225531712Y-113453462D01*
X228108911Y-118092421D02*
X217913599Y-128287733D01*
X209255000Y-86904009D02*
X210005009Y-86154000D01*
X217913599Y-128287733D02*
X215336400Y-128287733D01*
X219708524Y-107789399D02*
X209255000Y-97335875D01*
%TO.N,outer1_lower*%
X210725076Y-133642582D02*
X211948514Y-134866020D01*
X210168401Y-133642582D02*
X210725076Y-133642582D01*
%TO.N,outer1_upper*%
X220363713Y-118808311D02*
X220920388Y-118808311D01*
X220920388Y-118808311D02*
X222143826Y-120031749D01*
%TO.N,P9*%
X232410000Y-116061616D02*
X232410000Y-104140000D01*
X239142295Y-122793911D02*
X232410000Y-116061616D01*
X246088879Y-129987309D02*
X246088879Y-132334203D01*
X239142295Y-122793911D02*
X246088879Y-129740495D01*
X235931922Y-142491160D02*
X233140763Y-142491160D01*
X246088879Y-129740495D02*
X246088879Y-129987309D01*
X233140763Y-142491160D02*
X226194179Y-135544576D01*
X246088879Y-132334203D02*
X235931922Y-142491160D01*
X217238000Y-88968000D02*
X217238000Y-87370000D01*
X232410000Y-104140000D02*
X217238000Y-88968000D01*
X226194179Y-135544576D02*
X226194179Y-135297762D01*
%TO.N,outer2_lower*%
X224483467Y-146247678D02*
X225983929Y-147748140D01*
X224483467Y-146194366D02*
X224483467Y-146247678D01*
%TO.N,outer2_upper*%
X237431583Y-133690515D02*
X237431583Y-133743827D01*
X237431583Y-133743827D02*
X238932045Y-135244289D01*
%TO.N,P2*%
X174350000Y-97000000D02*
X172190000Y-97000000D01*
X98350000Y-105000000D02*
X96190000Y-105000000D01*
X155350000Y-92000000D02*
X153190000Y-92000000D01*
X115190000Y-105000000D02*
X117350000Y-105000000D01*
X136350000Y-95000000D02*
X134190000Y-95000000D01*
X193350000Y-99000000D02*
X191190000Y-99000000D01*
%TO.N,P0*%
X117350000Y-87000000D02*
X115190000Y-87000000D01*
X174350000Y-79000000D02*
X172190000Y-79000000D01*
X155350000Y-74000000D02*
X153190000Y-74000000D01*
X136350000Y-77000000D02*
X134190000Y-77000000D01*
X98350000Y-87000000D02*
X96190000Y-87000000D01*
X193350000Y-81000000D02*
X191190000Y-81000000D01*
%TO.N,P1*%
X136350000Y-59000000D02*
X134190000Y-59000000D01*
X172190000Y-61000000D02*
X174350000Y-61000000D01*
X98350000Y-69000000D02*
X96190000Y-69000000D01*
X153190000Y-56000000D02*
X155350000Y-56000000D01*
X191190000Y-63000000D02*
X193350000Y-63000000D01*
X117350000Y-69000000D02*
X115190000Y-69000000D01*
%TO.N,P6*%
X220690633Y-142320082D02*
X222191095Y-143820544D01*
X170637076Y-117578196D02*
X170206441Y-117147561D01*
X220690633Y-142266770D02*
X220690633Y-142320082D01*
X153350000Y-116000000D02*
X151190000Y-116000000D01*
X207448785Y-131773442D02*
X206892110Y-131773442D01*
X172323078Y-117578196D02*
X170637076Y-117578196D01*
X206892110Y-131773442D02*
X205668672Y-130550004D01*
%TO.N,P7*%
X217087422Y-116939171D02*
X215863984Y-115715733D01*
X233638749Y-129762919D02*
X233638749Y-129816231D01*
X217644097Y-116939171D02*
X217087422Y-116939171D01*
X233638749Y-129816231D02*
X235139211Y-131316693D01*
%TO.N,RAW*%
X232410000Y-64290000D02*
X232410000Y-60510000D01*
X228545000Y-73475000D02*
X228545000Y-68155000D01*
X221042000Y-57150000D02*
X218762000Y-59430000D01*
X229220000Y-74150000D02*
X228545000Y-73475000D01*
X228545000Y-68155000D02*
X232410000Y-64290000D01*
X229050000Y-57150000D02*
X221042000Y-57150000D01*
X232410000Y-60510000D02*
X229050000Y-57150000D01*
%TO.N,GND*%
X219062305Y-67775000D02*
X217963000Y-67775000D01*
X219487000Y-67350305D02*
X219062305Y-67775000D01*
X217963000Y-67775000D02*
X217238000Y-67050000D01*
X230650000Y-60700000D02*
X220032000Y-60700000D01*
X219487000Y-66749695D02*
X219487000Y-67350305D01*
X217247305Y-64510000D02*
X219487000Y-66749695D01*
X217238000Y-64510000D02*
X217247305Y-64510000D01*
X220032000Y-60700000D02*
X218762000Y-61970000D01*
%TO.N,RST*%
X219887000Y-63385000D02*
X218762000Y-64510000D01*
X229935000Y-63385000D02*
X219887000Y-63385000D01*
X230650000Y-64100000D02*
X229935000Y-63385000D01*
%TD*%
M02*
