%TF.GenerationSoftware,KiCad,Pcbnew,7.0.2-6a45011f42~172~ubuntu22.04.1*%
%TF.CreationDate,2023-05-10T23:38:50+02:00*%
%TF.ProjectId,keyboard,6b657962-6f61-4726-942e-6b696361645f,v1.0.0*%
%TF.SameCoordinates,Original*%
%TF.FileFunction,Soldermask,Top*%
%TF.FilePolarity,Negative*%
%FSLAX46Y46*%
G04 Gerber Fmt 4.6, Leading zero omitted, Abs format (unit mm)*
G04 Created by KiCad (PCBNEW 7.0.2-6a45011f42~172~ubuntu22.04.1) date 2023-05-10 23:38:50*
%MOMM*%
%LPD*%
G01*
G04 APERTURE LIST*
G04 Aperture macros list*
%AMRoundRect*
0 Rectangle with rounded corners*
0 $1 Rounding radius*
0 $2 $3 $4 $5 $6 $7 $8 $9 X,Y pos of 4 corners*
0 Add a 4 corners polygon primitive as box body*
4,1,4,$2,$3,$4,$5,$6,$7,$8,$9,$2,$3,0*
0 Add four circle primitives for the rounded corners*
1,1,$1+$1,$2,$3*
1,1,$1+$1,$4,$5*
1,1,$1+$1,$6,$7*
1,1,$1+$1,$8,$9*
0 Add four rect primitives between the rounded corners*
20,1,$1+$1,$2,$3,$4,$5,0*
20,1,$1+$1,$4,$5,$6,$7,0*
20,1,$1+$1,$6,$7,$8,$9,0*
20,1,$1+$1,$8,$9,$2,$3,0*%
%AMFreePoly0*
4,1,14,0.635355,0.435355,0.650000,0.400000,0.650000,0.200000,0.635355,0.164645,0.035355,-0.435355,0.000000,-0.450000,-0.035355,-0.435355,-0.635355,0.164645,-0.650000,0.200000,-0.650000,0.400000,-0.635355,0.435355,-0.600000,0.450000,0.600000,0.450000,0.635355,0.435355,0.635355,0.435355,$1*%
%AMFreePoly1*
4,1,16,0.635355,1.035355,0.650000,1.000000,0.650000,-0.250000,0.635355,-0.285355,0.600000,-0.300000,-0.600000,-0.300000,-0.635355,-0.285355,-0.650000,-0.250000,-0.650000,1.000000,-0.635355,1.035355,-0.600000,1.050000,-0.564645,1.035355,0.000000,0.470710,0.564645,1.035355,0.600000,1.050000,0.635355,1.035355,0.635355,1.035355,$1*%
G04 Aperture macros list end*
%ADD10C,0.250000*%
%ADD11C,0.100000*%
%ADD12C,1.100000*%
%ADD13C,1.701800*%
%ADD14C,3.429000*%
%ADD15C,2.132000*%
%ADD16C,2.200000*%
%ADD17RoundRect,0.050000X-0.889000X-0.889000X0.889000X-0.889000X0.889000X0.889000X-0.889000X0.889000X0*%
%ADD18RoundRect,0.050000X-0.450000X-0.600000X0.450000X-0.600000X0.450000X0.600000X-0.450000X0.600000X0*%
%ADD19C,2.005000*%
%ADD20RoundRect,0.050000X-1.165689X-0.470969X0.470969X-1.165689X1.165689X0.470969X-0.470969X1.165689X0*%
%ADD21RoundRect,0.050000X-0.648666X-0.376474X0.179789X-0.728132X0.648666X0.376474X-0.179789X0.728132X0*%
%ADD22RoundRect,0.050000X-1.257044X0.021942X-0.021942X-1.257044X1.257044X-0.021942X0.021942X1.257044X0*%
%ADD23RoundRect,0.050000X-0.744200X-0.093092X-0.119008X-0.740498X0.744200X0.093092X0.119008X0.740498X0*%
%ADD24RoundRect,0.050000X-1.236183X-0.229113X0.229113X-1.236183X1.236183X0.229113X-0.229113X1.236183X0*%
%ADD25RoundRect,0.050000X-0.710701X-0.239593X0.031013X-0.749359X0.710701X0.239593X-0.031013X0.749359X0*%
%ADD26RoundRect,0.050000X-0.500000X-0.400000X0.500000X-0.400000X0.500000X0.400000X-0.500000X0.400000X0*%
%ADD27C,0.900000*%
%ADD28RoundRect,0.050000X-0.350000X-0.750000X0.350000X-0.750000X0.350000X0.750000X-0.350000X0.750000X0*%
%ADD29RoundRect,0.050000X-0.450000X-0.850000X0.450000X-0.850000X0.450000X0.850000X-0.450000X0.850000X0*%
%ADD30RoundRect,0.050000X-1.048391X-0.693915X0.693915X-1.048391X1.048391X0.693915X-0.693915X1.048391X0*%
%ADD31RoundRect,0.050000X-0.560587X-0.498239X0.321345X-0.677670X0.560587X0.498239X-0.321345X0.677670X0*%
%ADD32C,1.700000*%
%ADD33FreePoly0,270.000000*%
%ADD34FreePoly0,90.000000*%
%ADD35RoundRect,0.050000X-0.800000X0.800000X-0.800000X-0.800000X0.800000X-0.800000X0.800000X0.800000X0*%
%ADD36FreePoly1,270.000000*%
%ADD37FreePoly1,90.000000*%
G04 APERTURE END LIST*
D10*
%TO.C,MCU1*%
X218887000Y-59430000D02*
G75*
G03*
X218887000Y-59430000I-125000J0D01*
G01*
X217363000Y-59430000D02*
G75*
G03*
X217363000Y-59430000I-125000J0D01*
G01*
X218887000Y-61970000D02*
G75*
G03*
X218887000Y-61970000I-125000J0D01*
G01*
X217363000Y-61970000D02*
G75*
G03*
X217363000Y-61970000I-125000J0D01*
G01*
X218887000Y-64510000D02*
G75*
G03*
X218887000Y-64510000I-125000J0D01*
G01*
X217363000Y-64510000D02*
G75*
G03*
X217363000Y-64510000I-125000J0D01*
G01*
X218887000Y-67050000D02*
G75*
G03*
X218887000Y-67050000I-125000J0D01*
G01*
X217363000Y-67050000D02*
G75*
G03*
X217363000Y-67050000I-125000J0D01*
G01*
X218887000Y-69590000D02*
G75*
G03*
X218887000Y-69590000I-125000J0D01*
G01*
X217363000Y-69590000D02*
G75*
G03*
X217363000Y-69590000I-125000J0D01*
G01*
X218887000Y-72130000D02*
G75*
G03*
X218887000Y-72130000I-125000J0D01*
G01*
X217363000Y-72130000D02*
G75*
G03*
X217363000Y-72130000I-125000J0D01*
G01*
X218887000Y-74670000D02*
G75*
G03*
X218887000Y-74670000I-125000J0D01*
G01*
X217363000Y-74670000D02*
G75*
G03*
X217363000Y-74670000I-125000J0D01*
G01*
X218887000Y-77210000D02*
G75*
G03*
X218887000Y-77210000I-125000J0D01*
G01*
X217363000Y-77210000D02*
G75*
G03*
X217363000Y-77210000I-125000J0D01*
G01*
X218887000Y-79750000D02*
G75*
G03*
X218887000Y-79750000I-125000J0D01*
G01*
X217363000Y-79750000D02*
G75*
G03*
X217363000Y-79750000I-125000J0D01*
G01*
X218887000Y-82290000D02*
G75*
G03*
X218887000Y-82290000I-125000J0D01*
G01*
X217363000Y-82290000D02*
G75*
G03*
X217363000Y-82290000I-125000J0D01*
G01*
X218887000Y-84830000D02*
G75*
G03*
X218887000Y-84830000I-125000J0D01*
G01*
X217363000Y-84830000D02*
G75*
G03*
X217363000Y-84830000I-125000J0D01*
G01*
X218887000Y-87370000D02*
G75*
G03*
X218887000Y-87370000I-125000J0D01*
G01*
X217363000Y-87370000D02*
G75*
G03*
X217363000Y-87370000I-125000J0D01*
G01*
D11*
X212920000Y-59938000D02*
X211904000Y-59938000D01*
X211904000Y-58922000D01*
X212920000Y-58922000D01*
X212920000Y-59938000D01*
G36*
X212920000Y-59938000D02*
G01*
X211904000Y-59938000D01*
X211904000Y-58922000D01*
X212920000Y-58922000D01*
X212920000Y-59938000D01*
G37*
X224096000Y-59938000D02*
X223080000Y-59938000D01*
X223080000Y-58922000D01*
X224096000Y-58922000D01*
X224096000Y-59938000D01*
G36*
X224096000Y-59938000D02*
G01*
X223080000Y-59938000D01*
X223080000Y-58922000D01*
X224096000Y-58922000D01*
X224096000Y-59938000D01*
G37*
X212920000Y-62478000D02*
X211904000Y-62478000D01*
X211904000Y-61462000D01*
X212920000Y-61462000D01*
X212920000Y-62478000D01*
G36*
X212920000Y-62478000D02*
G01*
X211904000Y-62478000D01*
X211904000Y-61462000D01*
X212920000Y-61462000D01*
X212920000Y-62478000D01*
G37*
X224096000Y-62478000D02*
X223080000Y-62478000D01*
X223080000Y-61462000D01*
X224096000Y-61462000D01*
X224096000Y-62478000D01*
G36*
X224096000Y-62478000D02*
G01*
X223080000Y-62478000D01*
X223080000Y-61462000D01*
X224096000Y-61462000D01*
X224096000Y-62478000D01*
G37*
X212920000Y-65018000D02*
X211904000Y-65018000D01*
X211904000Y-64002000D01*
X212920000Y-64002000D01*
X212920000Y-65018000D01*
G36*
X212920000Y-65018000D02*
G01*
X211904000Y-65018000D01*
X211904000Y-64002000D01*
X212920000Y-64002000D01*
X212920000Y-65018000D01*
G37*
X224096000Y-65018000D02*
X223080000Y-65018000D01*
X223080000Y-64002000D01*
X224096000Y-64002000D01*
X224096000Y-65018000D01*
G36*
X224096000Y-65018000D02*
G01*
X223080000Y-65018000D01*
X223080000Y-64002000D01*
X224096000Y-64002000D01*
X224096000Y-65018000D01*
G37*
X212920000Y-67558000D02*
X211904000Y-67558000D01*
X211904000Y-66542000D01*
X212920000Y-66542000D01*
X212920000Y-67558000D01*
G36*
X212920000Y-67558000D02*
G01*
X211904000Y-67558000D01*
X211904000Y-66542000D01*
X212920000Y-66542000D01*
X212920000Y-67558000D01*
G37*
X224096000Y-67558000D02*
X223080000Y-67558000D01*
X223080000Y-66542000D01*
X224096000Y-66542000D01*
X224096000Y-67558000D01*
G36*
X224096000Y-67558000D02*
G01*
X223080000Y-67558000D01*
X223080000Y-66542000D01*
X224096000Y-66542000D01*
X224096000Y-67558000D01*
G37*
X212920000Y-70098000D02*
X211904000Y-70098000D01*
X211904000Y-69082000D01*
X212920000Y-69082000D01*
X212920000Y-70098000D01*
G36*
X212920000Y-70098000D02*
G01*
X211904000Y-70098000D01*
X211904000Y-69082000D01*
X212920000Y-69082000D01*
X212920000Y-70098000D01*
G37*
X224096000Y-70098000D02*
X223080000Y-70098000D01*
X223080000Y-69082000D01*
X224096000Y-69082000D01*
X224096000Y-70098000D01*
G36*
X224096000Y-70098000D02*
G01*
X223080000Y-70098000D01*
X223080000Y-69082000D01*
X224096000Y-69082000D01*
X224096000Y-70098000D01*
G37*
X212920000Y-72638000D02*
X211904000Y-72638000D01*
X211904000Y-71622000D01*
X212920000Y-71622000D01*
X212920000Y-72638000D01*
G36*
X212920000Y-72638000D02*
G01*
X211904000Y-72638000D01*
X211904000Y-71622000D01*
X212920000Y-71622000D01*
X212920000Y-72638000D01*
G37*
X224096000Y-72638000D02*
X223080000Y-72638000D01*
X223080000Y-71622000D01*
X224096000Y-71622000D01*
X224096000Y-72638000D01*
G36*
X224096000Y-72638000D02*
G01*
X223080000Y-72638000D01*
X223080000Y-71622000D01*
X224096000Y-71622000D01*
X224096000Y-72638000D01*
G37*
X212920000Y-75178000D02*
X211904000Y-75178000D01*
X211904000Y-74162000D01*
X212920000Y-74162000D01*
X212920000Y-75178000D01*
G36*
X212920000Y-75178000D02*
G01*
X211904000Y-75178000D01*
X211904000Y-74162000D01*
X212920000Y-74162000D01*
X212920000Y-75178000D01*
G37*
X224096000Y-75178000D02*
X223080000Y-75178000D01*
X223080000Y-74162000D01*
X224096000Y-74162000D01*
X224096000Y-75178000D01*
G36*
X224096000Y-75178000D02*
G01*
X223080000Y-75178000D01*
X223080000Y-74162000D01*
X224096000Y-74162000D01*
X224096000Y-75178000D01*
G37*
X212920000Y-77718000D02*
X211904000Y-77718000D01*
X211904000Y-76702000D01*
X212920000Y-76702000D01*
X212920000Y-77718000D01*
G36*
X212920000Y-77718000D02*
G01*
X211904000Y-77718000D01*
X211904000Y-76702000D01*
X212920000Y-76702000D01*
X212920000Y-77718000D01*
G37*
X224096000Y-77718000D02*
X223080000Y-77718000D01*
X223080000Y-76702000D01*
X224096000Y-76702000D01*
X224096000Y-77718000D01*
G36*
X224096000Y-77718000D02*
G01*
X223080000Y-77718000D01*
X223080000Y-76702000D01*
X224096000Y-76702000D01*
X224096000Y-77718000D01*
G37*
X212920000Y-80258000D02*
X211904000Y-80258000D01*
X211904000Y-79242000D01*
X212920000Y-79242000D01*
X212920000Y-80258000D01*
G36*
X212920000Y-80258000D02*
G01*
X211904000Y-80258000D01*
X211904000Y-79242000D01*
X212920000Y-79242000D01*
X212920000Y-80258000D01*
G37*
X224096000Y-80258000D02*
X223080000Y-80258000D01*
X223080000Y-79242000D01*
X224096000Y-79242000D01*
X224096000Y-80258000D01*
G36*
X224096000Y-80258000D02*
G01*
X223080000Y-80258000D01*
X223080000Y-79242000D01*
X224096000Y-79242000D01*
X224096000Y-80258000D01*
G37*
X212920000Y-82798000D02*
X211904000Y-82798000D01*
X211904000Y-81782000D01*
X212920000Y-81782000D01*
X212920000Y-82798000D01*
G36*
X212920000Y-82798000D02*
G01*
X211904000Y-82798000D01*
X211904000Y-81782000D01*
X212920000Y-81782000D01*
X212920000Y-82798000D01*
G37*
X224096000Y-82798000D02*
X223080000Y-82798000D01*
X223080000Y-81782000D01*
X224096000Y-81782000D01*
X224096000Y-82798000D01*
G36*
X224096000Y-82798000D02*
G01*
X223080000Y-82798000D01*
X223080000Y-81782000D01*
X224096000Y-81782000D01*
X224096000Y-82798000D01*
G37*
X212920000Y-85338000D02*
X211904000Y-85338000D01*
X211904000Y-84322000D01*
X212920000Y-84322000D01*
X212920000Y-85338000D01*
G36*
X212920000Y-85338000D02*
G01*
X211904000Y-85338000D01*
X211904000Y-84322000D01*
X212920000Y-84322000D01*
X212920000Y-85338000D01*
G37*
X224096000Y-85338000D02*
X223080000Y-85338000D01*
X223080000Y-84322000D01*
X224096000Y-84322000D01*
X224096000Y-85338000D01*
G36*
X224096000Y-85338000D02*
G01*
X223080000Y-85338000D01*
X223080000Y-84322000D01*
X224096000Y-84322000D01*
X224096000Y-85338000D01*
G37*
X212920000Y-87878000D02*
X211904000Y-87878000D01*
X211904000Y-86862000D01*
X212920000Y-86862000D01*
X212920000Y-87878000D01*
G36*
X212920000Y-87878000D02*
G01*
X211904000Y-87878000D01*
X211904000Y-86862000D01*
X212920000Y-86862000D01*
X212920000Y-87878000D01*
G37*
X224096000Y-87878000D02*
X223080000Y-87878000D01*
X223080000Y-86862000D01*
X224096000Y-86862000D01*
X224096000Y-87878000D01*
G36*
X224096000Y-87878000D02*
G01*
X223080000Y-87878000D01*
X223080000Y-86862000D01*
X224096000Y-86862000D01*
X224096000Y-87878000D01*
G37*
%TD*%
D12*
%TO.C,*%
X231400000Y-83000000D03*
X229900000Y-83000000D03*
%TD*%
D13*
%TO.C,S4*%
X113500000Y-100000000D03*
D14*
X119000000Y-100000000D03*
D13*
X124500000Y-100000000D03*
D15*
X114000000Y-96200000D03*
X124000000Y-96200000D03*
X119000000Y-94100000D03*
X119000000Y-94100000D03*
%TD*%
D13*
%TO.C,S21*%
X189010336Y-116800494D03*
D14*
X194073113Y-118949515D03*
D13*
X199135890Y-121098536D03*
D15*
X190955367Y-113497941D03*
X200160416Y-117405252D03*
X196378427Y-113518536D03*
X196378427Y-113518536D03*
%TD*%
D16*
%TO.C,_8*%
X227953123Y-104852547D03*
%TD*%
D13*
%TO.C,S9*%
X132500000Y-54000000D03*
D14*
X138000000Y-54000000D03*
D13*
X143500000Y-54000000D03*
D15*
X133000000Y-50200000D03*
X143000000Y-50200000D03*
X138000000Y-48100000D03*
X138000000Y-48100000D03*
%TD*%
D17*
%TO.C,D1*%
X96190000Y-105000000D03*
D18*
X98350000Y-105000000D03*
X101650000Y-105000000D03*
D19*
X103810000Y-105000000D03*
%TD*%
D13*
%TO.C,S7*%
X132500000Y-90000000D03*
D14*
X138000000Y-90000000D03*
D13*
X143500000Y-90000000D03*
D15*
X133000000Y-86200000D03*
X143000000Y-86200000D03*
X138000000Y-84100000D03*
X138000000Y-84100000D03*
%TD*%
D17*
%TO.C,D7*%
X134190000Y-95000000D03*
D18*
X136350000Y-95000000D03*
X139650000Y-95000000D03*
D19*
X141810000Y-95000000D03*
%TD*%
D17*
%TO.C,D14*%
X172190000Y-79000000D03*
D18*
X174350000Y-79000000D03*
X177650000Y-79000000D03*
D19*
X179810000Y-79000000D03*
%TD*%
D20*
%TO.C,D21*%
X188612334Y-122063353D03*
D21*
X190600624Y-122907333D03*
X193638290Y-124196745D03*
D19*
X195626580Y-125040725D03*
%TD*%
D13*
%TO.C,S17*%
X189500000Y-76000000D03*
D14*
X195000000Y-76000000D03*
D13*
X200500000Y-76000000D03*
D15*
X190000000Y-72200000D03*
X200000000Y-72200000D03*
X195000000Y-70100000D03*
X195000000Y-70100000D03*
%TD*%
D13*
%TO.C,S11*%
X151500000Y-69000000D03*
D14*
X157000000Y-69000000D03*
D13*
X162500000Y-69000000D03*
D15*
X152000000Y-65200000D03*
X162000000Y-65200000D03*
X157000000Y-63100000D03*
X157000000Y-63100000D03*
%TD*%
D22*
%TO.C,D24*%
X220690633Y-142266770D03*
D23*
X222191095Y-143820544D03*
X224483467Y-146194366D03*
D19*
X225983929Y-147748140D03*
%TD*%
D17*
%TO.C,D9*%
X134190000Y-59000000D03*
D18*
X136350000Y-59000000D03*
X139650000Y-59000000D03*
D19*
X141810000Y-59000000D03*
%TD*%
D16*
%TO.C,_5*%
X119000000Y-91000000D03*
%TD*%
D17*
%TO.C,D3*%
X96190000Y-69000000D03*
D18*
X98350000Y-69000000D03*
X101650000Y-69000000D03*
D19*
X103810000Y-69000000D03*
%TD*%
D16*
%TO.C,_9*%
X195000000Y-67000000D03*
%TD*%
D13*
%TO.C,S6*%
X113500000Y-64000000D03*
D14*
X119000000Y-64000000D03*
D13*
X124500000Y-64000000D03*
D15*
X114000000Y-60200000D03*
X124000000Y-60200000D03*
X119000000Y-58100000D03*
X119000000Y-58100000D03*
%TD*%
D24*
%TO.C,D23*%
X215863984Y-115715733D03*
D25*
X217644097Y-116939171D03*
X220363713Y-118808311D03*
D19*
X222143826Y-120031749D03*
%TD*%
D13*
%TO.C,S14*%
X170500000Y-74000000D03*
D14*
X176000000Y-74000000D03*
D13*
X181500000Y-74000000D03*
D15*
X171000000Y-70200000D03*
X181000000Y-70200000D03*
X176000000Y-68100000D03*
X176000000Y-68100000D03*
%TD*%
D17*
%TO.C,D13*%
X172190000Y-97000000D03*
D18*
X174350000Y-97000000D03*
X177650000Y-97000000D03*
D19*
X179810000Y-97000000D03*
%TD*%
D13*
%TO.C,S18*%
X189500000Y-58000000D03*
D14*
X195000000Y-58000000D03*
D13*
X200500000Y-58000000D03*
D15*
X190000000Y-54200000D03*
X200000000Y-54200000D03*
X195000000Y-52100000D03*
X195000000Y-52100000D03*
%TD*%
D13*
%TO.C,S16*%
X189500000Y-94000000D03*
D14*
X195000000Y-94000000D03*
D13*
X200500000Y-94000000D03*
D15*
X190000000Y-90200000D03*
X200000000Y-90200000D03*
X195000000Y-88100000D03*
X195000000Y-88100000D03*
%TD*%
D13*
%TO.C,S2*%
X94500000Y-82000000D03*
D14*
X100000000Y-82000000D03*
D13*
X105500000Y-82000000D03*
D15*
X95000000Y-78200000D03*
X105000000Y-78200000D03*
X100000000Y-76100000D03*
X100000000Y-76100000D03*
%TD*%
D13*
%TO.C,S23*%
X217303242Y-110637876D03*
D14*
X221835936Y-113753110D03*
D13*
X226368630Y-116868344D03*
D15*
X219867649Y-107789399D03*
X228108911Y-113453462D03*
X225177733Y-108890765D03*
X225177733Y-108890765D03*
%TD*%
D17*
%TO.C,D19*%
X151190000Y-116000000D03*
D18*
X153350000Y-116000000D03*
X156650000Y-116000000D03*
D19*
X158810000Y-116000000D03*
%TD*%
D13*
%TO.C,S12*%
X151500000Y-51000000D03*
D14*
X157000000Y-51000000D03*
D13*
X162500000Y-51000000D03*
D15*
X152000000Y-47200000D03*
X162000000Y-47200000D03*
X157000000Y-45100000D03*
X157000000Y-45100000D03*
%TD*%
D13*
%TO.C,S1*%
X94500000Y-100000000D03*
D14*
X100000000Y-100000000D03*
D13*
X105500000Y-100000000D03*
D15*
X95000000Y-96200000D03*
X105000000Y-96200000D03*
X100000000Y-94100000D03*
X100000000Y-94100000D03*
%TD*%
D26*
%TO.C,*%
X229870000Y-77050000D03*
X232080000Y-77050000D03*
D27*
X230980000Y-74900000D03*
X230980000Y-74900000D03*
X230980000Y-71900000D03*
X230980000Y-71900000D03*
D26*
X229870000Y-69750000D03*
X232080000Y-69750000D03*
D28*
X229220000Y-75650000D03*
X229220000Y-72650000D03*
X229220000Y-71150000D03*
%TD*%
D13*
%TO.C,S13*%
X170500000Y-92000000D03*
D14*
X176000000Y-92000000D03*
D13*
X181500000Y-92000000D03*
D15*
X171000000Y-88200000D03*
X181000000Y-88200000D03*
X176000000Y-86100000D03*
X176000000Y-86100000D03*
%TD*%
D13*
%TO.C,S15*%
X170500000Y-56000000D03*
D14*
X176000000Y-56000000D03*
D13*
X181500000Y-56000000D03*
D15*
X171000000Y-52200000D03*
X181000000Y-52200000D03*
X176000000Y-50100000D03*
X176000000Y-50100000D03*
%TD*%
D13*
%TO.C,S20*%
X169547207Y-111911006D03*
D14*
X174936793Y-113007530D03*
D13*
X180326379Y-114104054D03*
D15*
X170794768Y-108286976D03*
X180594015Y-110280656D03*
X176113064Y-107225974D03*
X176113064Y-107225974D03*
%TD*%
D29*
%TO.C,*%
X230650000Y-60700000D03*
X230650000Y-64100000D03*
%TD*%
D30*
%TO.C,D20*%
X170206441Y-117147561D03*
D31*
X172323078Y-117578196D03*
X175556830Y-118236110D03*
D19*
X177673467Y-118666745D03*
%TD*%
D17*
%TO.C,D10*%
X153190000Y-92000000D03*
D18*
X155350000Y-92000000D03*
X158650000Y-92000000D03*
D19*
X160810000Y-92000000D03*
%TD*%
D13*
%TO.C,S8*%
X132500000Y-72000000D03*
D14*
X138000000Y-72000000D03*
D13*
X143500000Y-72000000D03*
D15*
X133000000Y-68200000D03*
X143000000Y-68200000D03*
X138000000Y-66100000D03*
X138000000Y-66100000D03*
%TD*%
D16*
%TO.C,_6*%
X157000000Y-60000000D03*
%TD*%
D17*
%TO.C,D17*%
X191190000Y-81000000D03*
D18*
X193350000Y-81000000D03*
X196650000Y-81000000D03*
D19*
X198810000Y-81000000D03*
%TD*%
D13*
%TO.C,S25*%
X236061475Y-125073943D03*
D14*
X239882096Y-129030312D03*
D13*
X243702717Y-132986681D03*
D15*
X239142295Y-122793911D03*
X246088879Y-129987309D03*
X244126201Y-124931828D03*
X244126201Y-124931828D03*
%TD*%
D17*
%TO.C,D2*%
X96190000Y-87000000D03*
D18*
X98350000Y-87000000D03*
X101650000Y-87000000D03*
D19*
X103810000Y-87000000D03*
%TD*%
D17*
%TO.C,D8*%
X134190000Y-77000000D03*
D18*
X136350000Y-77000000D03*
X139650000Y-77000000D03*
D19*
X141810000Y-77000000D03*
%TD*%
D17*
%TO.C,D5*%
X115190000Y-87000000D03*
D18*
X117350000Y-87000000D03*
X120650000Y-87000000D03*
D19*
X122810000Y-87000000D03*
%TD*%
D13*
%TO.C,S10*%
X151500000Y-87000000D03*
D14*
X157000000Y-87000000D03*
D13*
X162500000Y-87000000D03*
D15*
X152000000Y-83200000D03*
X162000000Y-83200000D03*
X157000000Y-81100000D03*
X157000000Y-81100000D03*
%TD*%
D17*
%TO.C,D11*%
X153190000Y-74000000D03*
D18*
X155350000Y-74000000D03*
X158650000Y-74000000D03*
D19*
X160810000Y-74000000D03*
%TD*%
D17*
%TO.C,D16*%
X191190000Y-99000000D03*
D18*
X193350000Y-99000000D03*
X196650000Y-99000000D03*
D19*
X198810000Y-99000000D03*
%TD*%
D13*
%TO.C,S24*%
X223113359Y-137577794D03*
D14*
X226933980Y-141534163D03*
D13*
X230754601Y-145490532D03*
D15*
X226194179Y-135297762D03*
X233140763Y-142491160D03*
X231178085Y-137435679D03*
X231178085Y-137435679D03*
%TD*%
D13*
%TO.C,S5*%
X113500000Y-82000000D03*
D14*
X119000000Y-82000000D03*
D13*
X124500000Y-82000000D03*
D15*
X114000000Y-78200000D03*
X124000000Y-78200000D03*
X119000000Y-76100000D03*
X119000000Y-76100000D03*
%TD*%
D13*
%TO.C,S22*%
X207107930Y-125472147D03*
D14*
X211640624Y-128587381D03*
D13*
X216173318Y-131702615D03*
D15*
X209672337Y-122623670D03*
X217913599Y-128287733D03*
X214982421Y-123725036D03*
X214982421Y-123725036D03*
%TD*%
D22*
%TO.C,D25*%
X233638749Y-129762919D03*
D23*
X235139211Y-131316693D03*
X237431583Y-133690515D03*
D19*
X238932045Y-135244289D03*
%TD*%
D13*
%TO.C,S19*%
X149500000Y-111000000D03*
D14*
X155000000Y-111000000D03*
D13*
X160500000Y-111000000D03*
D15*
X150000000Y-107200000D03*
X160000000Y-107200000D03*
X155000000Y-105100000D03*
X155000000Y-105100000D03*
%TD*%
D17*
%TO.C,D12*%
X153190000Y-56000000D03*
D18*
X155350000Y-56000000D03*
X158650000Y-56000000D03*
D19*
X160810000Y-56000000D03*
%TD*%
D17*
%TO.C,D18*%
X191190000Y-63000000D03*
D18*
X193350000Y-63000000D03*
X196650000Y-63000000D03*
D19*
X198810000Y-63000000D03*
%TD*%
D16*
%TO.C,_4*%
X119000000Y-51400000D03*
%TD*%
D17*
%TO.C,D6*%
X115190000Y-69000000D03*
D18*
X117350000Y-69000000D03*
X120650000Y-69000000D03*
D19*
X122810000Y-69000000D03*
%TD*%
D24*
%TO.C,D22*%
X205668672Y-130550004D03*
D25*
X207448785Y-131773442D03*
X210168401Y-133642582D03*
D19*
X211948514Y-134866020D03*
%TD*%
D17*
%TO.C,D4*%
X115190000Y-105000000D03*
D18*
X117350000Y-105000000D03*
X120650000Y-105000000D03*
D19*
X122810000Y-105000000D03*
%TD*%
D16*
%TO.C,_7*%
X157000000Y-99600000D03*
%TD*%
D32*
%TO.C,MCU1*%
X225620000Y-59430000D03*
D33*
X223842000Y-59430000D03*
D34*
X212158000Y-59430000D03*
D32*
X210380000Y-59430000D03*
D35*
X210380000Y-59430000D03*
D32*
X225620000Y-61970000D03*
D33*
X223842000Y-61970000D03*
D34*
X212158000Y-61970000D03*
D32*
X210380000Y-61970000D03*
X225620000Y-64510000D03*
D33*
X223842000Y-64510000D03*
D34*
X212158000Y-64510000D03*
D32*
X210380000Y-64510000D03*
X225620000Y-67050000D03*
D33*
X223842000Y-67050000D03*
D34*
X212158000Y-67050000D03*
D32*
X210380000Y-67050000D03*
X225620000Y-69590000D03*
D33*
X223842000Y-69590000D03*
D34*
X212158000Y-69590000D03*
D32*
X210380000Y-69590000D03*
X225620000Y-72130000D03*
D33*
X223842000Y-72130000D03*
D34*
X212158000Y-72130000D03*
D32*
X210380000Y-72130000D03*
X225620000Y-74670000D03*
D33*
X223842000Y-74670000D03*
D34*
X212158000Y-74670000D03*
D32*
X210380000Y-74670000D03*
X225620000Y-77210000D03*
D33*
X223842000Y-77210000D03*
D34*
X212158000Y-77210000D03*
D32*
X210380000Y-77210000D03*
X225620000Y-79750000D03*
D33*
X223842000Y-79750000D03*
D34*
X212158000Y-79750000D03*
D32*
X210380000Y-79750000D03*
X225620000Y-82290000D03*
D33*
X223842000Y-82290000D03*
D34*
X212158000Y-82290000D03*
D32*
X210380000Y-82290000D03*
X225620000Y-84830000D03*
D33*
X223842000Y-84830000D03*
D34*
X212158000Y-84830000D03*
D32*
X210380000Y-84830000D03*
X225620000Y-87370000D03*
D33*
X223842000Y-87370000D03*
D34*
X212158000Y-87370000D03*
D32*
X210380000Y-87370000D03*
D36*
X222826000Y-59430000D03*
X222826000Y-61970000D03*
X222826000Y-64510000D03*
X222826000Y-67050000D03*
X222826000Y-69590000D03*
X222826000Y-72130000D03*
X222826000Y-74670000D03*
X222826000Y-77210000D03*
X222826000Y-79750000D03*
X222826000Y-82290000D03*
X222826000Y-84830000D03*
X222826000Y-87370000D03*
D37*
X213174000Y-87370000D03*
X213174000Y-84830000D03*
X213174000Y-82290000D03*
X213174000Y-79750000D03*
X213174000Y-77210000D03*
X213174000Y-74670000D03*
X213174000Y-72130000D03*
X213174000Y-69590000D03*
X213174000Y-67050000D03*
X213174000Y-64510000D03*
X213174000Y-61970000D03*
X213174000Y-59430000D03*
%TD*%
D17*
%TO.C,D15*%
X172190000Y-61000000D03*
D18*
X174350000Y-61000000D03*
X177650000Y-61000000D03*
D19*
X179810000Y-61000000D03*
%TD*%
D13*
%TO.C,S3*%
X94500000Y-64000000D03*
D14*
X100000000Y-64000000D03*
D13*
X105500000Y-64000000D03*
D15*
X95000000Y-60200000D03*
X105000000Y-60200000D03*
X100000000Y-58100000D03*
X100000000Y-58100000D03*
%TD*%
M02*
