0
SECTION
2
HEADER
9
$INSUNITS
70
4
0
ENDSEC
0
SECTION
2
TABLES
0
TABLE
2
LTYPE
0
LTYPE
72
65
70
64
2
CONTINUOUS
3
______
73
0
40
0
0
ENDTAB
0
TABLE
2
LAYER
0
ENDTAB
0
ENDSEC
0
SECTION
2
ENTITIES
0
LINE
8
0
10
90.75
20
-108.75
11
109.25
21
-108.75
0
LINE
8
0
10
109.25
20
-108.75
11
109.25
21
-91.25
0
LINE
8
0
10
109.25
20
-91.25
11
90.75
21
-91.25
0
LINE
8
0
10
90.75
20
-91.25
11
90.75
21
-108.75
0
LINE
8
0
10
90.75
20
-90.75
11
109.25
21
-90.75
0
LINE
8
0
10
109.25
20
-90.75
11
109.25
21
-73.25
0
LINE
8
0
10
109.25
20
-73.25
11
90.75
21
-73.25
0
LINE
8
0
10
90.75
20
-73.25
11
90.75
21
-90.75
0
LINE
8
0
10
90.75
20
-72.75
11
109.25
21
-72.75
0
LINE
8
0
10
109.25
20
-72.75
11
109.25
21
-55.25
0
LINE
8
0
10
109.25
20
-55.25
11
90.75
21
-55.25
0
LINE
8
0
10
90.75
20
-55.25
11
90.75
21
-72.75
0
LINE
8
0
10
109.75
20
-108.75
11
128.25
21
-108.75
0
LINE
8
0
10
128.25
20
-108.75
11
128.25
21
-91.25
0
LINE
8
0
10
128.25
20
-91.25
11
109.75
21
-91.25
0
LINE
8
0
10
109.75
20
-91.25
11
109.75
21
-108.75
0
LINE
8
0
10
109.75
20
-90.75
11
128.25
21
-90.75
0
LINE
8
0
10
128.25
20
-90.75
11
128.25
21
-73.25
0
LINE
8
0
10
128.25
20
-73.25
11
109.75
21
-73.25
0
LINE
8
0
10
109.75
20
-73.25
11
109.75
21
-90.75
0
LINE
8
0
10
109.75
20
-72.75
11
128.25
21
-72.75
0
LINE
8
0
10
128.25
20
-72.75
11
128.25
21
-55.25
0
LINE
8
0
10
128.25
20
-55.25
11
109.75
21
-55.25
0
LINE
8
0
10
109.75
20
-55.25
11
109.75
21
-72.75
0
LINE
8
0
10
128.75
20
-98.75
11
147.25
21
-98.75
0
LINE
8
0
10
147.25
20
-98.75
11
147.25
21
-81.25
0
LINE
8
0
10
147.25
20
-81.25
11
128.75
21
-81.25
0
LINE
8
0
10
128.75
20
-81.25
11
128.75
21
-98.75
0
LINE
8
0
10
128.75
20
-80.75
11
147.25
21
-80.75
0
LINE
8
0
10
147.25
20
-80.75
11
147.25
21
-63.25
0
LINE
8
0
10
147.25
20
-63.25
11
128.75
21
-63.25
0
LINE
8
0
10
128.75
20
-63.25
11
128.75
21
-80.75
0
LINE
8
0
10
128.75
20
-62.75
11
147.25
21
-62.75
0
LINE
8
0
10
147.25
20
-62.75
11
147.25
21
-45.25
0
LINE
8
0
10
147.25
20
-45.25
11
128.75
21
-45.25
0
LINE
8
0
10
128.75
20
-45.25
11
128.75
21
-62.75
0
LINE
8
0
10
147.75
20
-95.75
11
166.25
21
-95.75
0
LINE
8
0
10
166.25
20
-95.75
11
166.25
21
-78.25
0
LINE
8
0
10
166.25
20
-78.25
11
147.75
21
-78.25
0
LINE
8
0
10
147.75
20
-78.25
11
147.75
21
-95.75
0
LINE
8
0
10
147.75
20
-77.75
11
166.25
21
-77.75
0
LINE
8
0
10
166.25
20
-77.75
11
166.25
21
-60.25
0
LINE
8
0
10
166.25
20
-60.25
11
147.75
21
-60.25
0
LINE
8
0
10
147.75
20
-60.25
11
147.75
21
-77.75
0
LINE
8
0
10
147.75
20
-59.75
11
166.25
21
-59.75
0
LINE
8
0
10
166.25
20
-59.75
11
166.25
21
-42.25
0
LINE
8
0
10
166.25
20
-42.25
11
147.75
21
-42.25
0
LINE
8
0
10
147.75
20
-42.25
11
147.75
21
-59.75
0
LINE
8
0
10
166.75
20
-100.75
11
185.25
21
-100.75
0
LINE
8
0
10
185.25
20
-100.75
11
185.25
21
-83.25
0
LINE
8
0
10
185.25
20
-83.25
11
166.75
21
-83.25
0
LINE
8
0
10
166.75
20
-83.25
11
166.75
21
-100.75
0
LINE
8
0
10
166.75
20
-82.75
11
185.25
21
-82.75
0
LINE
8
0
10
185.25
20
-82.75
11
185.25
21
-65.25
0
LINE
8
0
10
185.25
20
-65.25
11
166.75
21
-65.25
0
LINE
8
0
10
166.75
20
-65.25
11
166.75
21
-82.75
0
LINE
8
0
10
166.75
20
-64.75
11
185.25
21
-64.75
0
LINE
8
0
10
185.25
20
-64.75
11
185.25
21
-47.25
0
LINE
8
0
10
185.25
20
-47.25
11
166.75
21
-47.25
0
LINE
8
0
10
166.75
20
-47.25
11
166.75
21
-64.75
0
LINE
8
0
10
185.75
20
-102.75
11
204.25
21
-102.75
0
LINE
8
0
10
204.25
20
-102.75
11
204.25
21
-85.25
0
LINE
8
0
10
204.25
20
-85.25
11
185.75
21
-85.25
0
LINE
8
0
10
185.75
20
-85.25
11
185.75
21
-102.75
0
LINE
8
0
10
185.75
20
-84.75
11
204.25
21
-84.75
0
LINE
8
0
10
204.25
20
-84.75
11
204.25
21
-67.25
0
LINE
8
0
10
204.25
20
-67.25
11
185.75
21
-67.25
0
LINE
8
0
10
185.75
20
-67.25
11
185.75
21
-84.75
0
LINE
8
0
10
185.75
20
-66.75
11
204.25
21
-66.75
0
LINE
8
0
10
204.25
20
-66.75
11
204.25
21
-49.25
0
LINE
8
0
10
204.25
20
-49.25
11
185.75
21
-49.25
0
LINE
8
0
10
185.75
20
-49.25
11
185.75
21
-66.75
0
LINE
8
0
10
145.75
20
-119.75
11
164.1883919
21
-119.75
0
LINE
8
0
10
164.25
20
-119.1381689
11
164.25
21
-102.25
0
LINE
8
0
10
164.25
20
-102.25
11
145.75
21
-102.25
0
LINE
8
0
10
145.75
20
-102.25
11
145.75
21
-119.75
0
LINE
8
0
10
164.1883919
20
-119.75
11
182.196256
21
-123.4137414
0
LINE
8
0
10
182.378607
20
-122.8264755
11
185.7455663
21
-106.2773417
0
LINE
8
0
10
185.7455663
20
-106.2773417
11
167.6169593
21
-102.5890349
0
LINE
8
0
10
167.6169593
20
-102.5890349
11
164.25
21
-119.1381689
0
LINE
8
0
10
182.196256
20
-123.4137414
11
199.1121751
21
-130.594123
0
LINE
8
0
10
199.4079467
20
-130.0550019
11
206.0066801
21
-114.5093602
0
LINE
8
0
10
206.0066801
20
-114.5093602
11
188.9773403
21
-107.2808343
0
LINE
8
0
10
188.9773403
20
-107.2808343
11
182.378607
21
-122.8264755
0
LINE
8
0
10
199.1121751
20
-130.594123
11
214.2569628
21
-141.0028472
0
LINE
8
0
10
214.6542812
20
-140.533517
11
224.2198455
21
-126.6155346
0
LINE
8
0
10
224.2198455
20
-126.6155346
11
208.973511
21
-116.1370193
0
LINE
8
0
10
208.973511
20
-116.1370193
11
199.4079467
21
-130.0550019
0
LINE
8
0
10
209.2567142
20
-115.7249562
11
224.5030487
21
-126.2034715
0
LINE
8
0
10
224.5030487
20
-126.2034715
11
234.4151578
21
-111.7812632
0
LINE
8
0
10
234.4151578
20
-111.7812632
11
219.1688233
21
-101.3027479
0
LINE
8
0
10
219.1688233
20
-101.3027479
11
209.2567142
21
-115.7249562
0
LINE
8
0
10
214.2569628
20
-141.0028472
11
227.0653467
21
-154.2663169
0
LINE
8
0
10
227.0653467
20
-154.2663169
11
239.6537932
21
-142.1097954
0
LINE
8
0
10
239.6537932
20
-142.1097954
11
226.8026133
21
-128.8020091
0
LINE
8
0
10
226.8026133
20
-128.8020091
11
214.6542812
21
-140.533517
0
LINE
8
0
10
227.1622832
20
-128.4546799
11
240.0134631
21
-141.7624662
0
LINE
8
0
10
240.0134631
20
-141.7624662
11
252.6019096
21
-129.6059447
0
LINE
8
0
10
252.6019096
20
-129.6059447
11
239.7507297
21
-116.2981584
0
LINE
8
0
10
239.7507297
20
-116.2981584
11
227.1622832
21
-128.4546799
0
ENDSEC
0
EOF