0
SECTION
2
HEADER
9
$INSUNITS
70
4
0
ENDSEC
0
SECTION
2
TABLES
0
TABLE
2
LTYPE
0
LTYPE
72
65
70
64
2
CONTINUOUS
3
______
73
0
40
0
0
ENDTAB
0
TABLE
2
LAYER
0
ENDTAB
0
ENDSEC
0
SECTION
2
ENTITIES
0
LINE
8
0
10
88.5
20
-111
11
130.5
21
-111
0
LINE
8
0
10
88.5
20
-111
11
88.5
21
-53
0
LINE
8
0
10
88.5
20
-53
11
126.5
21
-53
0
LINE
8
0
10
130.5
20
-111
11
130.5
21
-101
0
LINE
8
0
10
130.5
20
-101
11
143.5
21
-101
0
LINE
8
0
10
149.5
20
-100
11
149.5
21
-98
0
LINE
8
0
10
145.5
20
-43
11
126.5
21
-43
0
LINE
8
0
10
126.5
20
-43
11
126.5
21
-53
0
LINE
8
0
10
149.5
20
-98
11
164.5
21
-98
0
LINE
8
0
10
168.5
20
-45
11
168.5
21
-40
0
LINE
8
0
10
168.5
20
-40
11
145.5
21
-40
0
LINE
8
0
10
145.5
20
-40
11
145.5
21
-43
0
LINE
8
0
10
180.9225835
20
-103
11
183.5
21
-103
0
LINE
8
0
10
164.5
20
-98
11
164.5
21
-100
0
LINE
8
0
10
187.5
20
-47
11
187.5
21
-45
0
LINE
8
0
10
187.5
20
-45
11
168.5
21
-45
0
LINE
8
0
10
189.362467
20
-105
11
206.5
21
-105
0
LINE
8
0
10
206.5
20
-105
11
206.5
21
-47
0
LINE
8
0
10
183.5
20
-103
11
183.5
21
-103.5243813
0
LINE
8
0
10
206.5
20
-47
11
187.5
21
-47
0
LINE
8
0
10
143.5
20
-122
11
163.9618289
21
-122
0
LINE
8
0
10
164.5
20
-100
11
149.5
21
-100
0
LINE
8
0
10
143.5
20
-101
11
143.5
21
-122
0
LINE
8
0
10
163.9618289
20
-122
11
181.5256632
21
-125.5734025
0
LINE
8
0
10
183.5
20
-103.5243813
11
180.9225835
21
-103
0
LINE
8
0
10
181.5256632
20
-125.5734025
11
198.0244776
21
-132.5767337
0
LINE
8
0
10
208.3564325
20
-113.0624601
11
189.362467
21
-105
0
LINE
8
0
10
198.0244776
20
-132.5767337
11
212.7958323
21
-142.7288045
0
LINE
8
0
10
208.3564325
20
-113.0624601
11
218.5889534
21
-98.1740499
0
LINE
8
0
10
229.1647822
20
-123.393021
11
237.5438558
21
-111.2013933
0
LINE
8
0
10
237.5438558
20
-111.2013933
11
218.5889534
21
-98.1740499
0
LINE
8
0
10
212.7958323
20
-142.7288045
11
227.0098135
21
-157.4478128
0
LINE
8
0
10
227.0098135
20
-157.4478128
11
255.7834055
21
-129.6614779
0
LINE
8
0
10
255.7834055
20
-129.6614779
11
239.8062629
21
-113.1166625
0
LINE
8
0
10
239.8062629
20
-113.1166625
11
229.1647822
21
-123.393021
0
ENDSEC
0
EOF